<svg width="60" height="60" viewBox="0 0 60 60" fill="none" xmlns="http://www.w3.org/2000/svg">
<g clip-path="url(#clip0_214_563)">
<path d="M45.0028 11.3615V5.4879C45.0028 4.51571 44.2146 3.72754 43.2424 3.72754H1.76035C0.788158 3.72754 -1.52588e-05 4.51571 -1.52588e-05 5.4879V54.5121C-1.52588e-05 55.4843 0.788158 56.2724 1.76035 56.2724H43.2424C44.2146 56.2724 45.0028 55.4843 45.0028 54.5121V44.8678C65.0063 42.2382 64.9918 13.984 45.0028 11.3615ZM45.0028 22.6076C50.333 24.3407 50.3291 31.8914 45.0028 33.6224V22.6076ZM34.6322 7.24827H41.482V13.1552H34.6322V7.24827ZM34.6322 16.6761H41.482V19.1582C41.2933 23.7029 34.8192 23.6993 34.6322 19.1582V16.6761ZM24.2617 7.24827H31.1115V13.1552H24.2618V7.24827H24.2617ZM24.2617 16.6761H31.1115V19.1582C30.9229 23.7029 24.4487 23.6993 24.2618 19.1582V16.6761H24.2617ZM13.8911 7.24827H20.7409V13.1552H13.8911V7.24827ZM13.8911 16.6761H20.7409V19.1582C20.5522 23.7029 14.0781 23.6993 13.8911 19.1582V16.6761ZM3.52071 7.24827H10.3704V13.1552H3.52071V7.24827ZM3.52071 16.6761H10.3704V19.1582C10.1818 23.7029 3.70766 23.6993 3.52071 19.1582V16.6761ZM24.512 31.8856V52.7518H3.52071V25.1969C6.26089 26.8371 10.1078 26.1566 12.1308 23.7726C14.7968 26.8621 19.8364 26.861 22.5013 23.7726C25.1673 26.8621 30.2069 26.8611 32.8717 23.7726C34.895 26.1569 38.7423 26.8369 41.4819 25.1969V27.3853L37.4067 31.4607C37.2162 30.6942 36.5255 30.1253 35.7 30.1253H26.2722C25.3002 30.1253 24.512 30.9134 24.512 31.8856ZM33.9398 34.9275L30.6843 38.183C30.0023 38.8386 30.0023 40.0171 30.6843 40.6725L33.9398 43.928V52.7518H28.0327V33.646H33.9398V34.9275ZM41.482 52.7518H37.4605V47.4488L41.482 51.4703V52.7518ZM43.2424 41.4385C42.2702 41.4385 41.482 42.2267 41.482 43.1989V46.4913L34.4185 39.4279L41.482 32.3644V35.6568C41.482 36.629 42.2702 37.4172 43.2424 37.4172C54.535 37.0927 55.9326 21.373 45.0028 18.9791V14.9064C61.3035 17.5613 59.8519 40.9188 43.2424 41.4385Z" fill="#D94616"/>
<path d="M18.7301 30.1252H9.30245C8.33026 30.1252 7.54208 30.9134 7.54208 31.8856V46.9699C7.54208 47.9421 8.33026 48.7303 9.30245 48.7303H18.7301C19.7023 48.7303 20.4905 47.9421 20.4905 46.9699V31.8856C20.4905 30.9134 19.7023 30.1252 18.7301 30.1252ZM16.9698 45.2095H11.0628V33.646H16.9698V45.2095Z" fill="#D94616"/>
</g>
<defs>
<clipPath id="clip0_214_563">
<rect width="60" height="60" fill="white"/>
</clipPath>
</defs>
</svg>
