<svg width="60" height="60" viewBox="0 0 60 60" fill="none" xmlns="http://www.w3.org/2000/svg">
<g clip-path="url(#clip0_214_559)">
<path d="M29.9998 0C5.55015 0.225338 -3.33998 31.8868 16.9459 44.8969V58.2387C16.9257 59.4143 18.1508 60.2971 19.2594 59.9061L29.9998 56.326L40.7402 59.9061C41.8491 60.2971 43.0741 59.4141 43.0537 58.2387V44.8969C63.3503 31.8765 54.4338 0.220182 29.9998 0V0ZM39.5383 55.7999L30.5556 52.8057C30.1949 52.6855 29.8047 52.6855 29.4441 52.8057L20.4614 55.7999V46.7531C26.2529 49.3287 33.747 49.3287 39.5384 46.7531V55.7999H39.5383ZM29.9998 45.1848C18.5116 45.1848 9.16516 35.8383 9.16516 24.3501C10.3097 -3.28996 49.6942 -3.28187 50.8345 24.3502C50.8345 35.8383 41.4881 45.1848 29.9998 45.1848Z" fill="#E68B0B"/>
<path d="M41.3619 20.7972C41.3864 20.7735 41.4108 20.7495 41.435 20.7253C44.9034 17.2882 42.4141 11.2846 37.5306 11.2962H35.2364C33.5395 6.30546 26.4583 6.30862 24.7634 11.2962H24.3517C15.498 11.3449 11.7562 22.523 18.6376 27.903C18.6132 27.9266 18.5887 27.9507 18.5645 27.9748C15.0963 31.4121 17.5855 37.4156 22.469 37.404H24.7632C26.4601 42.3947 33.5413 42.3915 35.2362 37.404H35.6479C44.5016 37.3552 48.2434 26.1771 41.3619 20.7972ZM35.6479 33.8886H33.7653C32.7945 33.8886 32.0076 34.6755 32.0076 35.6463C31.8972 38.3098 28.1019 38.3089 27.992 35.6463C27.992 34.6755 27.205 33.8886 26.2343 33.8886H22.469C19.8069 33.781 19.8057 29.9782 22.469 29.8731H35.6479C37.98 29.7802 37.9783 26.4497 35.6479 26.3577H24.3517C16.691 26.0397 16.697 15.1267 24.3517 14.8116H26.2343C27.205 14.8116 27.992 14.0246 27.992 13.0539C28.1024 10.3904 31.8977 10.3912 32.0076 13.0539C32.0076 14.0246 32.7945 14.8116 33.7653 14.8116H37.5306C40.1939 14.9199 40.1928 18.722 37.5306 18.827H24.3517C22.0196 18.9199 22.0213 22.2504 24.3517 22.3424H35.6479C43.3085 22.6603 43.3026 33.5735 35.6479 33.8886Z" fill="#E68B0B"/>
</g>
<defs>
<clipPath id="clip0_214_559">
<rect width="60" height="60" fill="white"/>
</clipPath>
</defs>
</svg>
