<svg width="60" height="60" viewBox="0 0 60 60" fill="none" xmlns="http://www.w3.org/2000/svg">
<g clip-path="url(#clip0_214_567)">
<path d="M48.8282 24.4945H43.0547V20.6039C43.0547 19.6331 42.2677 18.8461 41.2969 18.8461H1.75781C0.787031 18.8461 0 19.6331 0 20.6039V52.6117C0 53.5824 0.787031 54.3695 1.75781 54.3695H7.74375C9.65672 61.8555 20.2212 61.8505 22.1312 54.3695H37.8687C39.7816 61.8555 50.3461 61.8505 52.2561 54.3695H58.2422C59.213 54.3695 60 53.5824 60 52.6117V35.6663C60 29.5061 54.9882 24.4945 48.8282 24.4945ZM14.9375 56.5023C12.7922 56.5023 11.0469 54.7569 11.0469 52.6117C11.2605 47.4502 18.6154 47.4518 18.8282 52.6117C18.8282 54.7569 17.0828 56.5023 14.9375 56.5023ZM39.5391 47.6845C38.7439 48.5749 38.1611 49.6577 37.8687 50.8537H22.1312C20.2182 43.3678 9.65379 43.3728 7.74375 50.8537H3.51562V22.3616H39.5391V47.6845ZM45.0625 56.5023C42.9171 56.5023 41.1718 54.7569 41.1718 52.6117C41.3855 47.4502 48.7403 47.4518 48.9531 52.6117C48.9531 54.7569 47.2078 56.5023 45.0625 56.5023ZM56.4844 50.8538H52.2581C51.4669 47.6157 48.5409 45.2054 45.0626 45.2054H43.0547V28.0101H47.0704V39.432C47.0704 40.4028 47.8574 41.1899 48.8282 41.1899H56.4844V50.8538ZM56.4844 37.6741H50.586V28.2137C53.9631 29.0102 56.4844 32.0495 56.4844 35.6663V37.6741Z" fill="#E6AC00"/>
<path d="M43.1797 14.8304H47.8867C50.219 14.7375 50.2172 11.4068 47.8867 11.3148H45.2547L45.6101 9.18201H47.8867C50.219 9.08908 50.2172 5.75837 47.8867 5.66638H46.1961L46.5515 3.53357H49.7695C52.1017 3.44064 52.1 0.109937 49.7695 0.0179443H45.0624C44.2031 0.0179443 43.4697 0.639155 43.3285 1.48677L41.4458 12.7836C41.2672 13.8553 42.095 14.8304 43.1797 14.8304Z" fill="#E6AC00"/>
<path d="M31.8826 14.8304H36.5897C38.922 14.7375 38.9202 11.4068 36.5897 11.3148H33.9577L34.3131 9.18201H36.5897C38.922 9.08908 38.9202 5.75837 36.5897 5.66638H34.8991L35.2547 3.53357H38.4725C40.8048 3.44064 40.8031 0.109937 38.4725 0.0179443H33.7656C32.9063 0.0179443 32.1729 0.639155 32.0317 1.48677L30.1488 12.7836C29.9702 13.8553 30.7981 14.8304 31.8826 14.8304Z" fill="#E6AC00"/>
<path d="M18.4141 14.8065C19.7789 15.034 20.3553 13.8515 20.437 13.3616L20.7253 11.6322L24.186 14.438C24.9859 15.0864 26.0851 14.8869 26.6585 14.1796C27.27 13.4255 27.1542 12.3185 26.4001 11.7072L24.4465 10.1234H26.0771C26.9363 10.1234 27.6697 9.50216 27.811 8.65466L28.9097 2.06486C29.0883 0.993062 28.2604 0.0179443 27.1758 0.0179443H20.586C19.7266 0.0179443 18.9933 0.639155 18.852 1.48677L17.7611 8.0317C17.7607 8.03404 17.7604 8.0365 17.76 8.03884C17.759 8.04353 17.7585 8.04822 17.7576 8.05291C17.7538 8.07435 17.7499 8.09591 17.7469 8.11759L16.9691 12.7836C16.8095 13.7412 17.4565 14.6469 18.4141 14.8065ZM22.0751 3.53357H25.1006L24.5881 6.60775H21.5626L22.0751 3.53357Z" fill="#E6AC00"/>
<path d="M8.05868 14.8065C9.42345 15.034 9.99989 13.8513 10.0816 13.3616L10.6212 10.1235H13.0546C15.3869 10.0306 15.3851 6.69986 13.0546 6.60787H11.2072L11.7195 3.53369H14.9375C17.2697 3.44076 17.268 0.110059 14.9375 0.0180664H10.2304C9.37107 0.0180664 8.63771 0.639277 8.4965 1.48689L6.61376 12.7838C6.45404 13.7412 7.10103 14.6469 8.05868 14.8065Z" fill="#E6AC00"/>
</g>
<defs>
<clipPath id="clip0_214_567">
<rect width="60" height="60" fill="white"/>
</clipPath>
</defs>
</svg>
