<svg width="60" height="60" viewBox="0 0 60 60" fill="none" xmlns="http://www.w3.org/2000/svg">
<g clip-path="url(#clip0_214_574)">
<path d="M39.4256 21.6327L34.3681 20.2228L31.4645 15.8489C30.7935 14.8085 29.2065 14.8089 28.5356 15.8489L25.632 20.2228L20.5745 21.6327C20.0072 21.7909 19.5567 22.2226 19.3747 22.7827C19.1927 23.3429 19.3034 23.9569 19.6695 24.4184L22.9322 28.5315L22.7104 33.7767C22.6856 34.3651 22.957 34.9269 23.4334 35.2731C23.9098 35.6191 24.5278 35.7038 25.08 35.4983L30.0002 33.6665L34.9203 35.4983C35.4724 35.7038 36.0905 35.6191 36.5669 35.2731C37.0434 34.9269 37.3148 34.3651 37.2899 33.7767L37.0681 28.5315L40.3309 24.4184C40.697 23.9569 40.8075 23.3429 40.6256 22.7827C40.4434 22.2226 39.9929 21.7909 39.4256 21.6327ZM33.907 26.8594C33.6446 27.1902 33.5101 27.6042 33.5279 28.0261L33.6655 31.2797L30.6134 30.1434C30.2178 29.9961 29.7823 29.9961 29.3867 30.1434L26.3346 31.2797L26.4722 28.0261C26.49 27.6042 26.3555 27.1902 26.0931 26.8594L24.0692 24.308L27.2063 23.4335C27.613 23.32 27.9654 23.0642 28.1988 22.7124L30 19.9992L31.8013 22.7124C32.0349 23.0641 32.3871 23.32 32.7937 23.4335L35.9309 24.308L33.907 26.8594Z" fill="#E6D200"/>
<path d="M59.4844 46.3493L52.6287 39.4929C62.9246 22.4129 50.0616 -0.195469 29.9995 0.00128579C9.94013 -0.196289 -2.92742 22.4168 7.37084 39.4929L0.515136 46.3493C0.0843622 46.7801 -0.092705 47.4032 0.0473316 47.9961C0.187251 48.5891 0.624353 49.0672 1.20219 49.2599L8.35613 51.6442L10.7405 58.7982C10.9332 59.3761 11.4113 59.8131 12.0042 59.953C12.5972 60.093 13.2203 59.916 13.651 59.4852L21.9372 51.1998C26.9722 52.8814 33.0271 52.8814 38.0622 51.1998L46.3485 59.4852C46.7792 59.916 47.4023 60.093 47.9953 59.953C48.5882 59.8131 49.0663 59.376 49.259 58.7982L51.6434 51.6442L58.7973 49.2599C59.3753 49.0672 59.8123 48.5891 59.9522 47.9961C60.0922 47.4032 59.9151 46.7801 59.4844 46.3493ZM13.177 54.9884L11.4133 49.6984C11.2383 49.1735 10.8264 48.7617 10.3016 48.5868L5.01213 46.8235L9.38467 42.451C11.8064 45.517 14.9108 48.0336 18.4004 49.7649L13.177 54.9884ZM29.9998 48.9534C17.4729 48.9534 7.28142 38.762 7.28142 26.235C8.52933 -3.90404 51.4747 -3.89525 52.7182 26.2353C52.7181 38.762 42.5267 48.9534 29.9998 48.9534ZM49.6979 48.5868C49.173 48.7617 48.7612 49.1735 48.5862 49.6984L46.8226 54.9884L41.5993 49.7649C45.089 48.0338 48.1933 45.517 50.6151 42.451L54.9875 46.8235L49.6979 48.5868Z" fill="#E6D200"/>
<path d="M30 7.53223C19.6872 7.53223 11.2972 15.9222 11.2972 26.235C12.3246 51.0468 47.6793 51.0397 48.7029 26.2349C48.7028 15.9222 40.3128 7.53223 30 7.53223ZM30 41.4223C21.6257 41.4223 14.8128 34.6093 14.8128 26.235C15.647 6.0871 44.3562 6.09295 45.1873 26.2351C45.1873 34.6093 38.3743 41.4223 30 41.4223Z" fill="#E6D200"/>
</g>
<defs>
<clipPath id="clip0_214_574">
<rect width="60" height="60" fill="white"/>
</clipPath>
</defs>
</svg>
