<svg width="140" height="40" viewBox="0 0 140 40" fill="none" xmlns="http://www.w3.org/2000/svg"><path d="M34.358 7.652a19.864 19.864 0 012.298 3.916L19.185 24.792l-7.302-4.7v-5.654l7.302 4.7L34.358 7.652zM4.431 19.693c0-.254.006-.506.018-.757l-4.425-.222a20.097 20.097 0 001.433 8.518 19.68 19.68 0 004.161 6.384l3.139-3.222a15.121 15.121 0 01-3.203-4.907 15.441 15.441 0 01-1.123-5.794zM19.18 4.549c.248 0 .493.009.737.021L20.14.025a18.696 18.696 0 00-8.3 1.471A19.103 19.103 0 005.618 5.77l3.139 3.223a14.68 14.68 0 014.78-3.29 14.365 14.365 0 015.644-1.153zm0 30.288c-.246 0-.492 0-.737-.02l-.222 4.544a18.683 18.683 0 008.298-1.47 19.092 19.092 0 006.217-4.274l-3.132-3.221a14.686 14.686 0 01-4.78 3.288 14.37 14.37 0 01-5.643 1.153z" fill="#fff"/><path d="M27.495 7.191l3.73-2.822C27.814 1.535 23.56-.008 19.174 0v4.548a14.41 14.41 0 018.32 2.643zM38.36 19.693a20.325 20.325 0 00-.3-3.53l-4.13 3.125v.405a15.448 15.448 0 01-1.267 6.142 15.094 15.094 0 01-3.591 5.082l2.978 3.38a19.632 19.632 0 004.667-6.614 20.09 20.09 0 001.643-7.99zM19.18 34.837a14.398 14.398 0 01-5.982-1.302 14.741 14.741 0 01-4.95-3.686l-3.29 3.055a19.158 19.158 0 006.44 4.793 18.705 18.705 0 007.783 1.689v-4.549zM9.29 8.468L6.314 5.09a19.628 19.628 0 00-4.669 6.613A20.088 20.088 0 000 19.692h4.431c0-2.115.431-4.208 1.268-6.141A15.097 15.097 0 019.29 8.468zm101.396 2.794l5.488-4.104H97.807V31.82h18.367v-4.104h-13.126v-6.318h11.197v-4.104h-11.197v-6.033h7.638zm-25.237 5.504h-6.377V11.26h10.177l5.485-4.117h-20.9v24.664h10.94c6.133 0 9.654-2.822 9.654-7.743 0-4.709-3.189-7.298-8.98-7.298zm-.91 10.936h-5.467v-6.834h5.466c3.318 0 4.873 1.145 4.873 3.417 0 2.271-1.655 3.417-4.873 3.417zm45.136-20.548h-9.997v24.664h5.24V24.83h4.757c6.379 0 10.325-3.407 10.325-8.852 0-5.444-3.946-8.825-10.325-8.825zm-.11 13.57h-4.647V11.26h4.647c3.355 0 5.207 1.682 5.207 4.733 0 3.052-1.852 4.73-5.207 4.73zM65.97 25.997a9.04 9.04 0 01-4.41 1.12c-4.607 0-7.949-3.338-7.949-7.936s3.342-7.944 7.95-7.944a7.71 7.71 0 014.643 1.46l3.665-2.74-.248-.18c-2.138-1.908-4.995-2.919-8.265-2.919-3.547 0-6.764 1.212-9.06 3.416a11.918 11.918 0 00-2.698 4.011 12.068 12.068 0 00-.896 4.772 12.47 12.47 0 00.893 4.825 12.318 12.318 0 002.68 4.086c2.306 2.291 5.516 3.554 9.038 3.554 3.68 0 6.896-1.303 9.074-3.675l-3.281-2.481-1.136.631z" fill="#fff"/></svg>