<svg width="80" height="70" viewBox="0 0 80 70" fill="none" xmlns="http://www.w3.org/2000/svg">
<path d="M18.7923 28.4188H17.0456V33.1453H18.7923V28.4188Z" fill="white"/>
<path d="M21.8039 28.4188H20.0572V33.1453H21.8039V28.4188Z" fill="white"/>
<path d="M24.8155 28.4188H23.0688V33.1453H24.8155V28.4188Z" fill="white"/>
<path d="M27.8874 28.4188H26.1406V33.1453H27.8874V28.4188Z" fill="white"/>
<path d="M30.899 28.4188H29.0318V33.1453H30.899V28.4188Z" fill="white"/>
<path d="M33.9106 28.4188H32.0434V33.1453H33.9106V28.4188Z" fill="white"/>
<path d="M36.8619 28.4188H35.1152V33.1453H36.8619V28.4188Z" fill="white"/>
<path d="M39.8735 28.4188H38.1268V33.1453H39.8735V28.4188Z" fill="white"/>
<path d="M42.8851 28.4188H41.1384V33.1453H42.8851V28.4188Z" fill="white"/>
<path d="M45.957 28.4188H44.2102V33.1453H45.957V28.4188Z" fill="white"/>
<path d="M48.9686 28.4188H47.1014V33.1453H48.9686V28.4188Z" fill="white"/>
<path d="M51.9802 28.4188H50.113V33.1453H51.9802V28.4188Z" fill="white"/>
<path d="M54.9315 28.4188H53.1848V33.1453H54.9315V28.4188Z" fill="white"/>
<path d="M57.9431 28.4188H56.1964V33.1453H57.9431V28.4188Z" fill="white"/>
<path d="M60.9547 28.4188H59.208V33.1453H60.9547V28.4188Z" fill="white"/>
<path d="M64.0265 28.4188H62.2798V33.1453H64.0265V28.4188Z" fill="white"/>
<path d="M18.7923 33.6837H17.0456V35.5384H18.7923V33.6837Z" fill="white"/>
<path d="M21.8039 33.6837H20.0572V35.5384H21.8039V33.6837Z" fill="white"/>
<path d="M24.8155 33.6837H23.0688V35.5384H24.8155V33.6837Z" fill="white"/>
<path d="M27.8874 33.6837H26.1406V35.5384H27.8874V33.6837Z" fill="white"/>
<path d="M29.0318 33.6837H30.899V35.5983H29.0318V33.6837Z" fill="white"/>
<path d="M32.0434 33.7436L33.9106 33.6837V35.5983H32.0434V33.7436Z" fill="white"/>
<path d="M36.8619 33.6837H35.1152V35.5384H36.8619V33.6837Z" fill="white"/>
<path d="M39.8735 33.6837H38.1268V35.5384H39.8735V33.6837Z" fill="white"/>
<path d="M42.8851 33.6837H41.1384V35.5384H42.8851V33.6837Z" fill="white"/>
<path d="M45.957 33.6837H44.2102V35.5384H45.957V33.6837Z" fill="white"/>
<path d="M47.1014 33.6837L48.9686 33.7436V35.5983H47.1014V33.6837Z" fill="white"/>
<path d="M50.113 33.7436L51.9802 33.6837V35.5983H50.113V33.7436Z" fill="white"/>
<path d="M54.9315 33.6837H53.1848V35.5384H54.9315V33.6837Z" fill="white"/>
<path d="M57.9431 33.6837H56.1964V35.5384H57.9431V33.6837Z" fill="white"/>
<path d="M60.9547 33.6837H59.208V35.5384H60.9547V33.6837Z" fill="white"/>
<path d="M64.0265 33.6837H62.2798V35.5384H64.0265V33.6837Z" fill="white"/>
<path d="M22.8881 24.7094H21.3221V25.3675H22.8881V24.7094Z" fill="white"/>
<path d="M25.3577 24.7094H23.6109V25.3675H25.3577V24.7094Z" fill="white"/>
<path d="M27.8271 24.7094H26.0804V25.3675H27.8271V24.7094Z" fill="white"/>
<path d="M30.116 24.7094H28.5499V25.3675H30.116V24.7094Z" fill="white"/>
<path d="M42.2828 24.7094H40.5361V25.3675H42.2828V24.7094Z" fill="white"/>
<path d="M39.8133 24.7094H38.0666V25.3675H39.8133V24.7094Z" fill="white"/>
<path d="M37.3438 24.7094H35.7778V25.3675H37.3438V24.7094Z" fill="white"/>
<path d="M32.5855 24.7094H30.8388V25.3675H32.5855V24.7094Z" fill="white"/>
<path d="M35.055 24.7094H33.3082V25.3675H35.055V24.7094Z" fill="white"/>
<path d="M56.7385 24.7094H54.9917V25.3675H56.7385V24.7094Z" fill="white"/>
<path d="M54.269 24.7094H52.5223V25.3675H54.269V24.7094Z" fill="white"/>
<path d="M51.7995 24.7094H50.2334V25.3675H51.7995V24.7094Z" fill="white"/>
<path d="M49.5106 24.7094H47.7639V25.3675H49.5106V24.7094Z" fill="white"/>
<path d="M47.0412 24.7094H45.2944V25.3675H47.0412V24.7094Z" fill="white"/>
<path d="M44.6319 24.7094H43.0056V25.3675H44.6319V24.7094Z" fill="white"/>
<path d="M22.8881 22.4359H21.3221V23.7521H22.8881V22.4359Z" fill="white"/>
<path d="M59.0273 24.7094H57.4613V25.3675H59.0273V24.7094Z" fill="white"/>
<path d="M25.3577 22.4359H23.6109V23.7521H25.3577V22.4359Z" fill="white"/>
<path d="M27.8271 22.4359H26.0804V23.7521H27.8271V22.4359Z" fill="white"/>
<path d="M30.1762 22.4359H28.5499V23.7521H30.1762V22.4359Z" fill="white"/>
<path d="M32.5855 22.4359H30.8388V23.7521H32.5855V22.4359Z" fill="white"/>
<path d="M35.055 22.4359H33.3082V23.7521H35.055V22.4359Z" fill="white"/>
<path d="M37.3438 22.4359H35.7778V23.7521H37.3438V22.4359Z" fill="white"/>
<path d="M39.8133 22.4359H38.0666V23.7521H39.8133V22.4359Z" fill="white"/>
<path d="M51.7995 22.4359H50.2334V23.7521H51.7995V22.4359Z" fill="white"/>
<path d="M49.5106 22.4359H47.7639V23.7521H49.5106V22.4359Z" fill="white"/>
<path d="M47.0412 22.4359H45.2944V23.7521H47.0412V22.4359Z" fill="white"/>
<path d="M44.6319 22.4359H43.0056V23.7521H44.6319V22.4359Z" fill="white"/>
<path d="M42.2828 22.4359H40.5361V23.7521H42.2828V22.4359Z" fill="white"/>
<path d="M59.0273 22.4359H57.4613V23.7521H59.0273V22.4359Z" fill="white"/>
<path d="M56.7385 22.4359H54.9917V23.7521H56.7385V22.4359Z" fill="white"/>
<path d="M54.269 22.4359H52.5223V23.7521H54.269V22.4359Z" fill="white"/>
<path d="M22.8881 19.9829H21.3221V21.2991H22.8881V19.9829Z" fill="white"/>
<path d="M25.3577 19.9829H23.6109V21.2991H25.3577V19.9829Z" fill="white"/>
<path d="M27.8271 19.9829H26.0804V21.2991H27.8271V19.9829Z" fill="white"/>
<path d="M30.1762 19.9829H28.5499V21.2991H30.1762V19.9829Z" fill="white"/>
<path d="M32.5855 19.9829H30.8388V21.2991H32.5855V19.9829Z" fill="white"/>
<path d="M35.055 19.9829H33.3082V21.2991H35.055V19.9829Z" fill="white"/>
<path d="M37.3438 19.9829H35.7778V21.2991H37.3438V19.9829Z" fill="white"/>
<path d="M39.8133 19.9829H38.0666V21.2991H39.8133V19.9829Z" fill="white"/>
<path d="M51.7995 19.9829H50.2334V21.2991H51.7995V19.9829Z" fill="white"/>
<path d="M49.5106 19.9829H47.7639V21.2991H49.5106V19.9829Z" fill="white"/>
<path d="M47.0412 19.9829H45.2944V21.2991H47.0412V19.9829Z" fill="white"/>
<path d="M44.6319 19.9829H43.0056V21.2991H44.6319V19.9829Z" fill="white"/>
<path d="M42.2828 19.9829H40.5361V21.2991H42.2828V19.9829Z" fill="white"/>
<path d="M59.0273 19.9829H57.4613V21.2991H59.0273V19.9829Z" fill="white"/>
<path d="M56.7385 19.9829H54.9917V21.2991H56.7385V19.9829Z" fill="white"/>
<path d="M54.269 19.9829H52.5223V21.2991H54.269V19.9829Z" fill="white"/>
<path d="M22.8881 17.6496H21.3221V18.9658H22.8881V17.6496Z" fill="white"/>
<path d="M25.3577 17.6496H23.6109V18.9658H25.3577V17.6496Z" fill="white"/>
<path d="M27.8271 17.6496H26.0804V18.9658H27.8271V17.6496Z" fill="white"/>
<path d="M30.1762 17.6496H28.5499V18.9658H30.1762V17.6496Z" fill="white"/>
<path d="M32.5855 17.6496H30.8388V18.9658H32.5855V17.6496Z" fill="white"/>
<path d="M35.055 17.6496H33.3082V18.9658H35.055V17.6496Z" fill="white"/>
<path d="M37.3438 17.6496H35.7778V18.9658H37.3438V17.6496Z" fill="white"/>
<path d="M39.8133 17.6496H38.0666V18.9658H39.8133V17.6496Z" fill="white"/>
<path d="M51.7995 17.6496H50.2334V18.9658H51.7995V17.6496Z" fill="white"/>
<path d="M49.5106 17.6496H47.7639V18.9658H49.5106V17.6496Z" fill="white"/>
<path d="M47.0412 17.6496H45.2944V18.9658H47.0412V17.6496Z" fill="white"/>
<path d="M44.6319 17.6496H43.0056V18.9658H44.6319V17.6496Z" fill="white"/>
<path d="M42.2828 17.6496H40.5361V18.9658H42.2828V17.6496Z" fill="white"/>
<path d="M59.0273 17.6496H57.4613V18.9658H59.0273V17.6496Z" fill="white"/>
<path d="M56.7385 17.6496H54.9917V18.9658H56.7385V17.6496Z" fill="white"/>
<path d="M54.269 17.6496H52.5223V18.9658H54.269V17.6496Z" fill="white"/>
<path d="M22.8881 15.2564H21.3221V16.5727H22.8881V15.2564Z" fill="white"/>
<path d="M25.3577 15.2564H23.6109V16.5727H25.3577V15.2564Z" fill="white"/>
<path d="M27.8271 15.2564H26.0804V16.5727H27.8271V15.2564Z" fill="white"/>
<path d="M30.1762 15.2564H28.5499V16.5727H30.1762V15.2564Z" fill="white"/>
<path d="M32.5855 15.2564H30.8388V16.5727H32.5855V15.2564Z" fill="white"/>
<path d="M35.055 15.2564H33.3082V16.5727H35.055V15.2564Z" fill="white"/>
<path d="M37.3438 15.2564H35.7778V16.5727H37.3438V15.2564Z" fill="white"/>
<path d="M39.8133 15.2564H38.0666V16.5727H39.8133V15.2564Z" fill="white"/>
<path d="M51.7995 15.2564H50.2334V16.5727H51.7995V15.2564Z" fill="white"/>
<path d="M49.5106 15.2564H47.7639V16.5727H49.5106V15.2564Z" fill="white"/>
<path d="M47.0412 15.2564H45.2944V16.5727H47.0412V15.2564Z" fill="white"/>
<path d="M44.6319 15.2564H43.0056V16.5727H44.6319V15.2564Z" fill="white"/>
<path d="M42.2828 15.2564H40.5361V16.5727H42.2828V15.2564Z" fill="white"/>
<path d="M59.0273 15.2564H57.4613V16.5727H59.0273V15.2564Z" fill="white"/>
<path d="M56.7385 15.2564H54.9917V16.5727H56.7385V15.2564Z" fill="white"/>
<path d="M54.269 15.2564H52.5223V16.5727H54.269V15.2564Z" fill="white"/>
<path d="M22.8881 12.8034H21.3221V14.1196H22.8881V12.8034Z" fill="white"/>
<path d="M25.3577 12.8034H23.6109V14.1196H25.3577V12.8034Z" fill="white"/>
<path d="M27.8271 12.8034H26.0804V14.1196H27.8271V12.8034Z" fill="white"/>
<path d="M30.1762 12.8034H28.5499V14.1196H30.1762V12.8034Z" fill="white"/>
<path d="M32.5855 12.8034H30.8388V14.1196H32.5855V12.8034Z" fill="white"/>
<path d="M35.055 12.8034H33.3082V14.1196H35.055V12.8034Z" fill="white"/>
<path d="M37.3438 12.8034H35.7778V14.1196H37.3438V12.8034Z" fill="white"/>
<path d="M39.8133 12.8034H38.0666V14.1196H39.8133V12.8034Z" fill="white"/>
<path d="M51.7995 12.8034H50.2334V14.1196H51.7995V12.8034Z" fill="white"/>
<path d="M49.5106 12.8034H47.7639V14.1196H49.5106V12.8034Z" fill="white"/>
<path d="M47.0412 12.8034H45.2944V14.1196H47.0412V12.8034Z" fill="white"/>
<path d="M44.6319 12.8034H43.0056V14.1196H44.6319V12.8034Z" fill="white"/>
<path d="M42.2828 12.8034H40.5361V14.1196H42.2828V12.8034Z" fill="white"/>
<path d="M59.0273 12.8034H57.4613V14.1196H59.0273V12.8034Z" fill="white"/>
<path d="M56.7385 12.8034H54.9917V14.1196H56.7385V12.8034Z" fill="white"/>
<path d="M54.269 12.8034H52.5223V14.1196H54.269V12.8034Z" fill="white"/>
<path d="M76.6753 36.1367V24.7692H75.9525V25.3077H73.6637V24.7094H70.0498V25.3077H67.5802V24.7692H67.0381V25.906L65.171 27.0427H60.9547V12.0855H61.557V8.49572H60.9547V7.89743H53.1246V7.29914H51.2574V7.89743H41.1384V4.30769H39.8133V1.8547H42.8249V0H39.211V4.42735H38.0666V8.01709H27.8271V7.4188H25.96V8.01709H19.4549L18.8526 8.61538V12.3846H19.4549V9.93162H19.997V11.7863H20.5993V9.93162H21.2016V11.7863H21.9244V9.93162H22.3461V11.7863H23.0688V9.93162H23.4905V11.7863H24.2132V9.93162H24.8156V11.7863H25.5383V9.93162H25.96V11.7863H26.6827V9.93162H27.1044V11.7863H27.8271V9.93162H28.4295V11.7863H29.1523V9.93162H29.5739V11.7863H30.2967V9.93162H30.7183V11.7863H31.4411V9.93162H32.0434V11.7863H32.7662V9.93162H33.1878V11.7863H33.9106V9.93162H34.3322V11.7863H35.055V9.93162H35.6573V11.7863H36.3801V9.93162H36.8017V11.7863H37.5245V9.93162H37.9461V11.7863H38.6689V9.93162H39.2712V11.7863H39.994V9.93162H40.4156V11.7863H41.1384V9.93162H41.56V11.7863H42.2828V9.93162H42.8249V11.7863H43.5477V9.93162H43.9693V11.7863H44.6921V9.93162H45.1137V11.7863H45.8365V9.93162H46.4388V11.7863H47.1616V9.93162H47.5832V11.7863H48.306V9.93162H48.7879V11.7863H49.5107V9.93162H50.113V11.7863H50.8358V9.93162H51.2574V11.7863H51.9802V9.93162H52.4018V11.7863H53.1246V9.93162H53.6667V11.7863H54.3894V9.93162H54.8111V11.7863H55.4736V9.93162H55.9555V11.7863H56.6783V9.93162H57.2806V11.7863H58.0034V9.93162H58.425V11.7863H59.1478V9.93162H59.5694V11.7863H60.2922V9.93162H60.8945V12.2051H60.3524V27.282H59.0273V26.0256H57.4613V27.282H56.7385V26.0256H54.9918V27.282H54.269V26.0256H52.5223V27.282H51.7995V26.0256H50.2334V27.282H49.5107V26.0256H47.7639V27.282H47.0411V26.0256H45.2944V27.282H44.5716V26.0256H43.0056V27.282H42.2828V26.0256H40.5361V27.282H39.8133V26.0256H38.0666V27.282H37.3438V26.0256H35.7778V27.282H35.055V26.0256H33.3083V27.282H32.5855V26.0256H30.8387V27.282H30.116V26.0256H28.5499V27.282H27.8271V26.0256H26.0804V27.282H25.3577V26.0256H23.6109V27.282H22.8881V26.0256H21.3221V27.282H19.997V12.265H19.4549L19.3947 27.282H15.6603L13.8533 25.4273V24.8291H13.3113V25.3675H10.8418V24.8291H7.22783V25.4273H4.93901V24.8889H4.21624V36.2564H0V37.3932H79.5062V36.2564L76.6753 36.1367ZM20.5993 9.39316H19.8765V8.61538H20.5993V9.39316ZM21.8642 9.39316H21.1414V8.61538H21.8642V9.39316ZM23.0688 9.39316H22.3461V8.61538H23.0688V9.39316ZM24.2132 9.39316H23.4905V8.61538H24.2132V9.39316ZM25.4781 9.39316H24.7553V8.61538H25.4781V9.39316ZM26.6827 9.39316H25.96V8.61538H26.6827V9.39316ZM27.8271 9.39316H27.1044V8.61538H27.8271V9.39316ZM29.092 9.39316H28.3693V8.61538H29.092V9.39316ZM29.5739 9.39316V8.61538H30.2967V9.39316H29.5739ZM31.4411 9.39316H30.7183V8.61538H31.4411V9.39316ZM32.7059 9.39316H31.9832V8.61538H32.7059V9.39316ZM33.1878 9.39316V8.61538H33.9106V9.39316H33.1878ZM34.3322 9.39316V8.61538H35.055V9.39316H34.3322ZM36.3199 9.39316H35.5971V8.61538H36.3199V9.39316ZM37.4643 9.39316H36.7415V8.61538H37.4643V9.39316ZM38.6689 9.39316H37.9461V8.61538H38.6689V9.39316ZM39.9338 9.39316H39.211V8.61538H39.9338V9.39316ZM38.6689 7.47863V6.76068H40.4156V7.47863H38.6689ZM41.0782 9.39316H40.3554V8.61538H41.0782V9.39316ZM41.56 9.39316V8.61538H42.2828V9.39316H41.56ZM43.5477 9.39316H42.8249V8.61538H43.5477V9.39316ZM44.6921 9.39316H43.9693V8.61538H44.6921V9.39316ZM45.8967 9.39316H45.174V8.61538H45.8967V9.39316ZM47.1616 9.39316H46.4388V8.61538H47.1616V9.39316ZM48.306 9.39316H47.5832V8.61538H48.306V9.39316ZM49.5107 9.39316H48.7879V8.61538H49.5107V9.39316ZM50.7755 9.39316H50.0527V8.61538H50.7755V9.39316ZM51.9199 9.39316H51.1972V8.61538H51.9199V9.39316ZM53.1246 9.39316H52.4018V8.61538H53.1246V9.39316ZM54.3894 9.39316H53.6667V8.61538H54.3894V9.39316ZM55.5339 9.39316H54.8111V8.61538H55.5339V9.39316ZM56.7385 9.39316H56.0157V8.61538H56.7385V9.39316ZM58.0034 9.39316H57.2806V8.61538H58.0034V9.39316ZM59.1478 9.39316H58.425V8.61538H59.1478V9.39316ZM60.3524 9.39316H59.6296V8.61538H60.3524V9.39316ZM12.2271 36.1367V27.8205H11.6248V36.1367H10.2997V27.1026H10.8418V26.5641H7.22783V27.1624H7.95061V36.1966H6.68575V27.8803H6.08343V36.1966H4.99924V26.0256H13.3715V36.1966L12.2271 36.1367ZM65.1107 36.1367H15.841V27.8205H65.1107V36.1367ZM74.8081 36.1367V27.8205H74.0853V36.1367H72.9409V27.1026H73.6637V26.5043H70.0498V27.1026H70.6521V36.1367H69.5077V27.8205H68.7246V36.1367H67.5802V25.9658H75.9525V36.1367H74.8081Z" fill="white"/>
<path d="M0.180667 43.4957H5.30038V49.8974H4.03551V44.5727H1.50578V49.8974H0.180667V43.4957Z" fill="white"/>
<path d="M6.68576 43.4957H8.79388C9.5769 43.4957 10.119 43.5556 10.3599 43.6154C10.7213 43.7351 11.0225 43.9145 11.2634 44.2735C11.5043 44.5727 11.6248 44.9915 11.6248 45.5299C11.6248 45.9487 11.5645 46.2479 11.3838 46.547C11.2032 46.8462 11.0827 47.0256 10.8418 47.2051C10.6008 47.3846 10.4201 47.4444 10.1792 47.5043C9.87805 47.5641 9.39619 47.6239 8.8541 47.6239H8.01086V50.0769H6.68576V43.4957ZM7.95062 46.4274H8.67341C9.2155 46.4274 9.51667 46.3675 9.69736 46.3077C9.87806 46.2479 9.99851 46.1282 10.119 46.0086C10.2394 45.8889 10.2394 45.7094 10.2394 45.5299C10.2394 45.2906 10.1792 45.1111 10.0587 44.9316C9.93827 44.7521 9.75758 44.6923 9.51665 44.6325C9.33596 44.6325 9.0348 44.5727 8.55294 44.5727H7.95062V46.4274Z" fill="white"/>
<path d="M17.7082 49.9573H16.3229L15.7206 48.4615H13.1306L12.5885 49.8974H11.2032L13.7329 43.4957H15.1182L17.7082 49.9573ZM15.3592 47.3846L14.4557 44.9915L13.5522 47.3846H15.3592Z" fill="white"/>
<path d="M21.0209 43.4957C21.5028 43.4957 21.9244 43.4957 22.1654 43.5556C22.4063 43.6154 22.6472 43.6752 22.8279 43.7949C23.0086 43.9145 23.1893 44.094 23.3098 44.3333C23.4302 44.5727 23.4905 44.812 23.4905 45.1111C23.4905 45.4103 23.4302 45.7094 23.2495 45.9487C23.0688 46.188 22.8881 46.3675 22.587 46.4872C23.0086 46.6068 23.3098 46.7863 23.4905 47.0855C23.6712 47.3846 23.7916 47.6838 23.7916 48.0427C23.7916 48.3419 23.7314 48.641 23.6109 48.8803C23.4904 49.1795 23.3098 49.359 23.0688 49.5385C22.8279 49.7179 22.5267 49.7778 22.1654 49.8376C21.9244 49.8376 21.4426 49.8974 20.5993 49.8974H18.3707V43.4957H21.0209ZM19.7561 44.5727V46.0684H21.563C21.804 46.0684 21.9847 45.9487 22.1051 45.8291C22.2256 45.7094 22.2858 45.5299 22.2858 45.3504C22.2858 45.1709 22.2256 44.9915 22.1051 44.8718C21.9847 44.7521 21.804 44.6923 21.6233 44.6325H19.7561V44.5727ZM19.7561 47.1453V48.8803H20.9607C21.4426 48.8803 21.7437 48.8803 21.8642 48.8205C22.0449 48.7607 22.2256 48.7009 22.3461 48.5812C22.4665 48.4615 22.5267 48.2821 22.5267 48.0427C22.5267 47.8633 22.4665 47.6838 22.4063 47.5641C22.346 47.4445 22.1654 47.3248 21.9847 47.265C21.804 47.2051 21.4426 47.1453 20.8403 47.1453H19.7561Z" fill="white"/>
<path d="M24.9963 43.4957H26.2009V47.7436L28.8511 43.4957H30.1762V49.8974H28.9716V45.7094L26.3816 49.8974H25.0565V43.4957H24.9963Z" fill="white"/>
<path d="M32.8866 49.9572V44.6325H30.9592V43.5555H36.0789V44.6325H34.1515V49.9572H32.8866Z" fill="white"/>
<path d="M36.9824 49.9573V43.4957H41.801V44.5727H38.3075V46.0086H41.56V47.0855H38.3075V48.8205H41.9214V49.8974H36.9824V49.9573Z" fill="white"/>
<path d="M43.4272 43.4957H47.9446V49.8974H46.6195V44.5727H44.6921V47.3248C44.6921 48.1026 44.6921 48.641 44.6319 49C44.5716 49.2992 44.4512 49.5385 44.2705 49.718C44.0898 49.8974 43.7284 49.9573 43.3068 49.9573C43.1261 49.9573 42.8852 49.9573 42.4635 49.8974V48.8804H42.7647C43.0658 48.8804 43.2465 48.8205 43.3068 48.7607C43.367 48.7009 43.4272 48.5214 43.4272 48.2222V43.4957Z" fill="white"/>
<path d="M50.655 43.4957V46.0684H52.4018C53.245 46.0684 53.8473 46.2479 54.2087 46.6667C54.5701 47.0257 54.7508 47.5043 54.7508 48.0427C54.7508 48.4615 54.6304 48.8804 54.3894 49.1795C54.1485 49.4786 53.9076 49.718 53.6064 49.7778C53.3053 49.8974 52.8836 49.9573 52.3415 49.9573H49.2697V43.4957H50.655ZM50.655 48.8804H51.9199C52.3415 48.8804 52.6427 48.8803 52.7632 48.8205C52.9439 48.7607 53.0643 48.7009 53.1848 48.5214C53.3053 48.4017 53.3655 48.2222 53.3655 47.9829C53.3655 47.6838 53.245 47.4445 53.0643 47.3248C52.8234 47.2051 52.462 47.1453 51.9802 47.1453H50.655V48.8804Z" fill="white"/>
<path d="M59.7501 47.5641L61.0149 47.9829C60.8343 48.7009 60.4729 49.1795 60.0512 49.5385C59.5694 49.8974 59.0273 50.0769 58.3045 50.0769C57.4613 50.0769 56.7385 49.7778 56.1964 49.1795C55.6543 48.5812 55.3531 47.8034 55.3531 46.7863C55.3531 45.7094 55.6543 44.8718 56.1964 44.2735C56.7385 43.6752 57.4613 43.3761 58.3647 43.3761C59.1478 43.3761 59.8103 43.6154 60.2922 44.094C60.5933 44.3932 60.8343 44.7521 60.9547 45.2906L59.6898 45.5897C59.6296 45.2308 59.4489 44.9915 59.208 44.812C58.9671 44.6325 58.6659 44.5128 58.3045 44.5128C57.8227 44.5128 57.4613 44.6923 57.1601 45.0513C56.8589 45.4103 56.7385 45.9487 56.7385 46.7265C56.7385 47.5641 56.8589 48.1026 57.1601 48.4615C57.4613 48.8205 57.8227 49 58.3045 49C58.6659 49 58.9671 48.8803 59.208 48.7009C59.4489 48.4017 59.6296 48.0427 59.7501 47.5641Z" fill="white"/>
<path d="M63.364 49.9572V44.6325H61.4366V43.5555H66.5563V44.6325H64.6289V49.9572H63.364Z" fill="white"/>
<path d="M69.9895 43.4957C70.4714 43.4957 70.893 43.4957 71.1339 43.5556C71.3748 43.6154 71.6158 43.6752 71.7965 43.7949C71.9772 43.9145 72.1579 44.094 72.2783 44.3333C72.3988 44.5727 72.459 44.812 72.459 45.1111C72.459 45.4103 72.3988 45.7094 72.2181 45.9487C72.0374 46.188 71.8567 46.3675 71.5555 46.4872C71.9772 46.6068 72.2783 46.7863 72.459 47.0855C72.6397 47.3846 72.7602 47.6838 72.7602 48.0427C72.7602 48.3419 72.7 48.641 72.5795 48.8803C72.459 49.1795 72.2783 49.359 72.0374 49.5385C71.7965 49.7179 71.4953 49.7778 71.1339 49.8376C70.893 49.8376 70.4111 49.8974 69.5679 49.8974H67.3393V43.4957H69.9895ZM68.7246 44.5727V46.0684H70.5316C70.7725 46.0684 70.9532 45.9487 71.0737 45.8291C71.1942 45.7094 71.2544 45.5299 71.2544 45.3504C71.2544 45.1709 71.1942 44.9915 71.0737 44.8718C70.9532 44.7521 70.7725 44.6923 70.5918 44.6325H68.7246V44.5727ZM68.7246 47.1453V48.8803H69.9293C70.4111 48.8803 70.7123 48.8803 70.8328 48.8205C71.0135 48.7607 71.1942 48.7009 71.3146 48.5812C71.4351 48.4615 71.4953 48.2821 71.4953 48.0427C71.4953 47.8633 71.4351 47.6838 71.3749 47.5641C71.3146 47.4445 71.1339 47.3248 70.9532 47.265C70.7725 47.2051 70.4111 47.1453 69.8088 47.1453H68.7246Z" fill="white"/>
<path d="M73.483 46.7863C73.483 46.1282 73.6034 45.5897 73.7841 45.1111C73.9046 44.812 74.1455 44.5128 74.3865 44.2137C74.6274 43.9744 74.9285 43.735 75.2297 43.6154C75.6513 43.4359 76.073 43.3761 76.615 43.3761C77.5788 43.3761 78.3015 43.6752 78.9039 44.2735C79.446 44.8718 79.7471 45.6496 79.7471 46.7265C79.7471 47.7436 79.446 48.5812 78.9039 49.1795C78.3618 49.7778 77.5788 50.0769 76.615 50.0769C75.6513 50.0769 74.8683 49.7778 74.3262 49.1795C73.7239 48.5812 73.483 47.8034 73.483 46.7863ZM74.8081 46.7265C74.8081 47.4444 74.9888 47.9829 75.2899 48.4017C75.6513 48.7607 76.0729 48.9402 76.5548 48.9402C77.0969 48.9402 77.5185 48.7607 77.8197 48.4017C78.1811 48.0427 78.3015 47.4444 78.3015 46.7265C78.3015 46.0085 78.1208 45.4701 77.8197 45.0513C77.5185 44.6923 77.0367 44.5128 76.5548 44.5128C76.0127 44.5128 75.5911 44.6923 75.2297 45.0513C74.9888 45.4103 74.8081 46.0085 74.8081 46.7265Z" fill="white"/>
<path d="M7.58923 59.2308V52.7692H9.69735C10.4804 52.7692 11.0224 52.8291 11.2634 52.8889C11.6248 53.0086 11.9259 53.1881 12.1668 53.547C12.4078 53.8462 12.5282 54.265 12.5282 54.8034C12.5282 55.2222 12.468 55.5214 12.2873 55.8205C12.1066 56.1197 11.9862 56.2992 11.7452 56.4786C11.5043 56.6581 11.3236 56.718 11.0827 56.7778C10.7815 56.8376 10.2997 56.8974 9.75757 56.8974H8.91432V59.2308H7.58923ZM8.91432 55.7009H9.63712C10.1792 55.7009 10.4804 55.641 10.661 55.5812C10.8417 55.5214 10.9622 55.4017 11.0827 55.2821C11.2031 55.1624 11.2031 54.9829 11.2031 54.8034C11.2031 54.5641 11.1429 54.3846 11.0224 54.2051C10.902 54.0257 10.7213 53.9658 10.4804 53.906C10.2997 53.906 9.9985 53.8462 9.51664 53.8462H8.91432V55.7009Z" fill="white"/>
<path d="M13.3715 56.0598C13.3715 55.4017 13.4919 54.8632 13.6726 54.3846C13.7931 54.0855 14.034 53.7863 14.275 53.4872C14.5159 53.2479 14.8171 53.0085 15.1182 52.8889C15.5398 52.7094 15.9615 52.6496 16.5036 52.6496C17.4673 52.6496 18.19 52.9487 18.7924 53.547C19.3344 54.1453 19.6356 54.9231 19.6356 56C19.6356 57.0171 19.3344 57.8547 18.7924 58.453C18.2503 59.0513 17.4673 59.3504 16.5036 59.3504C15.5398 59.3504 14.7568 59.0513 14.2147 58.453C13.6727 57.8547 13.3715 57.0769 13.3715 56.0598ZM14.6966 56C14.6966 56.7179 14.8773 57.2564 15.1784 57.6752C15.5398 58.0342 15.9615 58.2137 16.4433 58.2137C16.9854 58.2137 17.407 58.0342 17.7082 57.6752C18.0696 57.3162 18.19 56.7179 18.19 56C18.19 55.282 18.0093 54.7436 17.7082 54.3248C17.407 53.9658 16.9252 53.7863 16.4433 53.7863C15.9012 53.7863 15.4796 53.9658 15.1182 54.3248C14.8773 54.6838 14.6966 55.282 14.6966 56Z" fill="white"/>
<path d="M24.936 56.8376L26.2009 57.2564C26.0202 57.9744 25.6588 58.453 25.2372 58.812C24.7553 59.1709 24.2132 59.3504 23.4905 59.3504C22.6472 59.3504 21.9244 59.0513 21.3823 58.453C20.8403 57.8547 20.5391 57.0769 20.5391 56.0598C20.5391 54.9829 20.8403 54.1453 21.3823 53.547C21.9244 52.9487 22.6472 52.6496 23.5507 52.6496C24.3337 52.6496 24.9963 52.8889 25.4781 53.3675C25.7793 53.6667 26.0202 54.0256 26.1407 54.5641L24.8758 54.8632C24.8156 54.5043 24.6349 54.2649 24.3939 54.0855C24.153 53.906 23.8519 53.7863 23.4905 53.7863C23.0086 53.7863 22.6472 53.9658 22.3461 54.3248C22.0449 54.6838 21.9244 55.2222 21.9244 56C21.9244 56.8376 22.0449 57.3761 22.3461 57.735C22.6472 58.094 23.0086 58.2735 23.4905 58.2735C23.8519 58.2735 24.153 58.1538 24.3939 57.9743C24.6349 57.6752 24.8156 57.3162 24.936 56.8376Z" fill="white"/>
<path d="M31.5615 56.8376L32.8264 57.2564C32.6457 57.9744 32.2843 58.453 31.8627 58.812C31.3808 59.1709 30.8388 59.3504 30.116 59.3504C29.2727 59.3504 28.55 59.0513 28.0079 58.453C27.4658 57.8547 27.1646 57.0769 27.1646 56.0598C27.1646 54.9829 27.4658 54.1453 28.0079 53.547C28.55 52.9487 29.2727 52.6496 30.1762 52.6496C30.9592 52.6496 31.6218 52.8889 32.1036 53.3675C32.4048 53.6667 32.6457 54.0256 32.7662 54.5641L31.5013 54.8632C31.4411 54.5043 31.2604 54.2649 31.0195 54.0855C30.7785 53.906 30.4774 53.7863 30.116 53.7863C29.6341 53.7863 29.2727 53.9658 28.9716 54.3248C28.6704 54.6838 28.5499 55.2222 28.5499 56C28.5499 56.8376 28.6704 57.3761 28.9716 57.735C29.2727 58.094 29.6341 58.2735 30.116 58.2735C30.4774 58.2735 30.7785 58.1538 31.0195 57.9743C31.3206 57.6752 31.5013 57.3162 31.5615 56.8376Z" fill="white"/>
<path d="M34.1515 52.7692H35.3561V57.0171L38.0064 52.7692H39.3315V59.2308H38.1268V55.0428L35.5369 59.2308H34.2117V52.7692H34.1515Z" fill="white"/>
<path d="M40.777 52.7692H41.9817V57.0171L44.6319 52.7692H45.957V59.2308H44.7523V55.0427L42.1624 59.2308H40.8373V52.7692H40.777ZM44.0898 51.2137H44.6921C44.6319 51.6325 44.5114 51.9316 44.2705 52.1709C44.0296 52.4103 43.7284 52.5299 43.3068 52.5299C42.8852 52.5299 42.584 52.4103 42.3431 52.1709C42.1021 51.9316 41.9817 51.6325 41.9214 51.2137H42.5238C42.5238 51.3932 42.6442 51.5726 42.7647 51.6923C42.8852 51.812 43.0659 51.8718 43.3068 51.8718C43.5477 51.8718 43.7284 51.812 43.8489 51.6923C44.0296 51.5726 44.0898 51.3932 44.0898 51.2137Z" fill="white"/>
<path d="M51.4983 56.8376L52.7632 57.2564C52.5825 57.9744 52.2211 58.453 51.7995 58.812C51.3176 59.1709 50.7755 59.3504 50.0528 59.3504C49.2095 59.3504 48.4867 59.0513 47.9446 58.453C47.4026 57.8547 47.1014 57.0769 47.1014 56.0598C47.1014 54.9829 47.4026 54.1453 47.9446 53.547C48.4867 52.9487 49.2095 52.6496 50.113 52.6496C50.896 52.6496 51.5586 52.8889 52.0404 53.3675C52.3416 53.6667 52.5825 54.0256 52.703 54.5641L51.4381 54.8632C51.3779 54.5043 51.1972 54.2649 50.9562 54.0855C50.7153 53.906 50.4142 53.7863 50.0528 53.7863C49.5709 53.7863 49.2095 53.9658 48.9084 54.3248C48.6072 54.6838 48.4867 55.2222 48.4867 56C48.4867 56.8376 48.6072 57.3761 48.9084 57.735C49.2095 58.094 49.5709 58.2735 50.0528 58.2735C50.4142 58.2735 50.7153 58.1538 50.9562 57.9743C51.1972 57.6752 51.3779 57.3162 51.4983 56.8376Z" fill="white"/>
<path d="M54.0281 52.7692H55.3532V55.5214C55.6543 55.5214 55.835 55.4017 55.9555 55.2821C56.076 55.1624 56.1964 54.8034 56.4374 54.265C56.6783 53.547 56.9794 53.1282 57.2806 52.9487C57.5215 52.7692 58.0034 52.7094 58.6057 52.7094H58.7864V53.6667H58.6057C58.3648 53.6667 58.1238 53.7265 58.0034 53.7863C57.8829 53.8462 57.7624 53.9658 57.7022 54.0855C57.642 54.2051 57.5215 54.5043 57.3408 54.9231C57.2806 55.1624 57.1601 55.3419 57.0999 55.4615C56.9794 55.5812 56.859 55.7607 56.618 55.8803C56.9192 55.9402 57.1601 56.1197 57.3408 56.359C57.5215 56.5983 57.7625 56.9573 57.9431 57.4359L58.8466 59.1709H57.2806L56.4976 57.4957C56.4976 57.4957 56.4374 57.4359 56.4374 57.3761C56.4374 57.3761 56.3771 57.2564 56.2567 57.0769C56.076 56.7778 55.9555 56.5385 55.835 56.4786C55.7146 56.4188 55.5339 56.359 55.3532 56.359V59.2308H54.0281V52.7692Z" fill="white"/>
<path d="M59.3887 56.0598C59.3887 55.4017 59.5092 54.8632 59.6899 54.3846C59.8103 54.0855 60.0513 53.7863 60.2922 53.4872C60.5331 53.2479 60.8343 53.0085 61.1354 52.8889C61.5571 52.7094 61.9787 52.6496 62.5208 52.6496C63.4845 52.6496 64.2073 52.9487 64.8096 53.547C65.3517 54.1453 65.6528 54.9231 65.6528 56C65.6528 57.0171 65.3517 57.8547 64.8096 58.453C64.2675 59.0513 63.4845 59.3504 62.5208 59.3504C61.5571 59.3504 60.774 59.0513 60.232 58.453C59.6899 57.8547 59.3887 57.0769 59.3887 56.0598ZM60.774 56C60.774 56.7179 60.9547 57.2564 61.2559 57.6752C61.6173 58.0342 62.0389 58.2137 62.5208 58.2137C63.0629 58.2137 63.4845 58.0342 63.7856 57.6752C64.147 57.3162 64.2675 56.7179 64.2675 56C64.2675 55.282 64.0868 54.7436 63.7856 54.3248C63.4845 53.9658 63.0026 53.7863 62.5208 53.7863C61.9787 53.7863 61.5571 53.9658 61.1957 54.3248C60.9547 54.6838 60.774 55.282 60.774 56Z" fill="white"/>
<path d="M66.8575 52.7692H68.0621V57.0171L70.7123 52.7692H72.0374V59.2308H70.8328V55.0427L68.2428 59.2308H66.9177V52.7692H66.8575ZM70.2304 51.2137H70.8328C70.7725 51.6325 70.6521 51.9316 70.4111 52.1709C70.1702 52.4103 69.869 52.5299 69.4474 52.5299C69.0258 52.5299 68.7246 52.4103 68.4837 52.1709C68.2428 51.9316 68.1223 51.6325 68.0621 51.2137H68.6644C68.6644 51.3932 68.7849 51.5726 68.9053 51.6923C69.0258 51.812 69.2065 51.8718 69.4474 51.8718C69.6884 51.8718 69.8691 51.812 69.9895 51.6923C70.11 51.5726 70.1702 51.3932 70.2304 51.2137Z" fill="white"/>
<path d="M14.9978 67.7265V68.5043H13.7329V67.7265C12.7089 67.6667 11.9862 67.4274 11.5645 66.9487C11.1429 66.4701 10.902 65.8718 10.902 65.2137C10.902 64.4957 11.1429 63.8974 11.5645 63.4188C11.9862 62.9402 12.7089 62.7009 13.7329 62.7009V62.0427H14.9978V62.7009C16.0217 62.7607 16.7445 63 17.1661 63.4786C17.5877 63.9573 17.8287 64.5556 17.8287 65.2735C17.8287 65.9915 17.5877 66.5898 17.1661 67.0086C16.7445 67.4274 16.0217 67.7265 14.9978 67.7265ZM13.7329 66.6496V63.7778C13.1908 63.7778 12.7692 63.8974 12.5283 64.1368C12.2873 64.3761 12.1669 64.7351 12.1669 65.2137C12.1669 66.171 12.6487 66.6496 13.7329 66.6496ZM14.9978 66.6496C15.3592 66.6496 15.6603 66.5898 15.9012 66.4701C16.1422 66.3504 16.3229 66.2308 16.4433 65.9915C16.5638 65.812 16.624 65.5128 16.624 65.1539C16.624 64.1966 16.0819 63.7778 15.058 63.7778V66.6496H14.9978Z" fill="white"/>
<path d="M18.9731 68.5042V62.1025H23.7916V63.1795H20.2982V64.6154H23.5507V65.6923H20.2982V67.4273H23.9121V68.5042H18.9731Z" fill="white"/>
<path d="M30.116 62.0427V67.3675H30.6581V69.8205H29.5739V68.4445H25.4781V69.8205H24.3939V67.3675H24.936C25.177 66.8291 25.3576 66.1709 25.4781 65.453C25.5383 64.735 25.5986 63.8376 25.5986 62.7009V62.0427H30.116ZM26.9237 63.1197C26.9237 65.094 26.743 66.4701 26.3816 67.3675H28.8511V63.1197H26.9237Z" fill="white"/>
<path d="M31.7422 68.5042V62.1025H36.5608V63.1795H33.0673V64.6154H36.3199V65.6923H33.0673V67.4273H36.6813V68.5042H31.7422Z" fill="white"/>
<path d="M37.8859 62.1025H39.994C40.777 62.1025 41.3191 62.1624 41.56 62.2222C41.9214 62.3419 42.2226 62.5213 42.4635 62.8803C42.7044 63.1795 42.8249 63.5983 42.8249 64.1367C42.8249 64.5555 42.7647 64.8547 42.584 65.1538C42.4033 65.453 42.2828 65.6325 42.0419 65.8119C41.801 65.9914 41.6203 66.0513 41.3793 66.1111C41.0782 66.1709 40.5963 66.2308 40.0542 66.2308H39.211V68.6837H37.8859V62.1025ZM39.211 64.9743H39.9338C40.4759 64.9743 40.777 64.9145 40.9577 64.8547C41.1384 64.7948 41.2589 64.6752 41.3793 64.5555C41.4998 64.4359 41.4998 64.2564 41.4998 64.0769C41.4998 63.8376 41.4396 63.6581 41.3191 63.4786C41.1987 63.2991 41.0179 63.2393 40.777 63.1795C40.5963 63.1795 40.2952 63.1196 39.8133 63.1196H39.211V64.9743Z" fill="white"/>
<path d="M49.0891 68.5042H47.6435L47.1014 67.0684H44.5114L43.9693 68.5042H42.584L45.1137 62.1025H46.4991L49.0891 68.5042ZM46.6798 65.9316L45.7763 63.5384L44.8728 65.9316H46.6798Z" fill="white"/>
<path d="M49.9323 62.0427H51.2574V67.3675H53.7871V62.0427H55.1122V67.3675H55.6543V69.8205H54.5701V68.4445H49.9925V62.0427H49.9323Z" fill="white"/>
<path d="M56.6783 62.0427H57.8829V66.2906L60.5331 62.0427H61.8582V68.4445H60.6536V64.2564L58.0636 68.4445H56.6783V62.0427Z" fill="white"/>
<path d="M63.3038 62.0427H64.5084V66.2906L67.1586 62.0427H68.4837V68.4445H67.2791V64.2564L64.6891 68.4445H63.3038V62.0427Z" fill="white"/>
</svg>
