<svg width="80" height="70" viewBox="0 0 80 70" fill="none" xmlns="http://www.w3.org/2000/svg"><path d="M18.792 28.419h-1.746v4.726h1.746V28.42zm3.012 0h-1.747v4.726h1.747V28.42zm3.012 0h-1.747v4.726h1.747V28.42zm3.071 0h-1.746v4.726h1.746V28.42zm3.012 0h-1.867v4.726h1.867V28.42zm3.011 0h-1.867v4.726h1.868V28.42zm2.952 0h-1.747v4.726h1.747V28.42zm3.011 0h-1.746v4.726h1.746V28.42zm3.012 0h-1.747v4.726h1.747V28.42zm3.072 0H44.21v4.726h1.747V28.42zm3.012 0H47.1v4.726h1.868V28.42zm3.011 0h-1.867v4.726h1.867V28.42zm2.951 0h-1.746v4.726h1.746V28.42zm3.012 0h-1.747v4.726h1.747V28.42zm3.012 0h-1.747v4.726h1.747V28.42zm3.071 0H62.28v4.726h1.746V28.42zm-45.234 5.265h-1.746v1.854h1.746v-1.854zm3.012 0h-1.747v1.854h1.747v-1.854zm3.012 0h-1.747v1.854h1.747v-1.854zm3.071 0h-1.746v1.854h1.746v-1.854zm1.145 0h1.867v1.914h-1.867v-1.914zm3.011.06l1.868-.06v1.914h-1.868v-1.854zm4.819-.06h-1.747v1.854h1.747v-1.854zm3.011 0h-1.746v1.854h1.746v-1.854zm3.012 0h-1.747v1.854h1.747v-1.854zm3.072 0H44.21v1.854h1.747v-1.854zm1.144 0l1.868.06v1.854H47.1v-1.914zm3.012.06l1.867-.06v1.914h-1.867v-1.854zm4.818-.06h-1.746v1.854h1.746v-1.854zm3.012 0h-1.747v1.854h1.747v-1.854zm3.012 0h-1.747v1.854h1.747v-1.854zm3.071 0H62.28v1.854h1.746v-1.854zM22.888 24.71h-1.566v.657h1.566v-.658zm2.47 0H23.61v.657h1.747v-.658zm2.469 0H26.08v.657h1.747v-.658zm2.289 0H28.55v.657h1.566v-.658zm12.167 0h-1.747v.657h1.747v-.658zm-2.47 0h-1.746v.657h1.746v-.658zm-2.469 0h-1.566v.657h1.566v-.658zm-4.758 0h-1.747v.657h1.747v-.658zm2.469 0h-1.747v.657h1.747v-.658zm21.684 0h-1.747v.657h1.747v-.658zm-2.47 0h-1.747v.657h1.747v-.658zm-2.469 0h-1.567v.657H51.8v-.658zm-2.29 0h-1.746v.657h1.747v-.658zm-2.469 0h-1.747v.657h1.747v-.658zm-2.409 0h-1.626v.657h1.626v-.658zm-21.744-2.274h-1.566v1.316h1.566v-1.316zm36.139 2.274h-1.566v.657h1.566v-.658zm-33.669-2.274H23.61v1.316h1.747v-1.316zm2.469 0H26.08v1.316h1.747v-1.316zm2.349 0H28.55v1.316h1.626v-1.316zm2.41 0h-1.747v1.316h1.747v-1.316zm2.469 0h-1.747v1.316h1.747v-1.316zm2.289 0h-1.566v1.316h1.566v-1.316zm2.469 0h-1.746v1.316h1.746v-1.316zm11.987 0h-1.567v1.316H51.8v-1.316zm-2.29 0h-1.746v1.316h1.747v-1.316zm-2.469 0h-1.747v1.316h1.747v-1.316zm-2.409 0h-1.626v1.316h1.626v-1.316zm-2.349 0h-1.747v1.316h1.747v-1.316zm16.744 0h-1.566v1.316h1.566v-1.316zm-2.288 0h-1.747v1.316h1.747v-1.316zm-2.47 0h-1.747v1.316h1.747v-1.316zm-31.381-2.453h-1.566v1.316h1.566v-1.316zm2.47 0H23.61v1.316h1.747v-1.316zm2.469 0H26.08v1.316h1.747v-1.316zm2.349 0H28.55v1.316h1.626v-1.316zm2.41 0h-1.747v1.316h1.747v-1.316zm2.469 0h-1.747v1.316h1.747v-1.316zm2.289 0h-1.566v1.316h1.566v-1.316zm2.469 0h-1.746v1.316h1.746v-1.316zm11.987 0h-1.567v1.316H51.8v-1.316zm-2.29 0h-1.746v1.316h1.747v-1.316zm-2.469 0h-1.747v1.316h1.747v-1.316zm-2.409 0h-1.626v1.316h1.626v-1.316zm-2.349 0h-1.747v1.316h1.747v-1.316zm16.744 0h-1.566v1.316h1.566v-1.316zm-2.288 0h-1.747v1.316h1.747v-1.316zm-2.47 0h-1.747v1.316h1.747v-1.316zM22.888 17.65h-1.566v1.316h1.566V17.65zm2.47 0H23.61v1.316h1.747V17.65zm2.469 0H26.08v1.316h1.747V17.65zm2.349 0H28.55v1.316h1.626V17.65zm2.41 0h-1.747v1.316h1.747V17.65zm2.469 0h-1.747v1.316h1.747V17.65zm2.289 0h-1.566v1.316h1.566V17.65zm2.469 0h-1.746v1.316h1.746V17.65zm11.987 0h-1.567v1.316H51.8V17.65zm-2.29 0h-1.746v1.316h1.747V17.65zm-2.469 0h-1.747v1.316h1.747V17.65zm-2.409 0h-1.626v1.316h1.626V17.65zm-2.349 0h-1.747v1.316h1.747V17.65zm16.744 0h-1.566v1.316h1.566V17.65zm-2.288 0h-1.747v1.316h1.747V17.65zm-2.47 0h-1.747v1.316h1.747V17.65zm-31.381-2.394h-1.566v1.317h1.566v-1.317zm2.47 0H23.61v1.317h1.747v-1.317zm2.469 0H26.08v1.317h1.747v-1.317zm2.349 0H28.55v1.317h1.626v-1.317zm2.41 0h-1.747v1.317h1.747v-1.317zm2.469 0h-1.747v1.317h1.747v-1.317zm2.289 0h-1.566v1.317h1.566v-1.317zm2.469 0h-1.746v1.317h1.746v-1.317zm11.987 0h-1.567v1.317H51.8v-1.317zm-2.29 0h-1.746v1.317h1.747v-1.317zm-2.469 0h-1.747v1.317h1.747v-1.317zm-2.409 0h-1.626v1.317h1.626v-1.317zm-2.349 0h-1.747v1.317h1.747v-1.317zm16.744 0h-1.566v1.317h1.566v-1.317zm-2.288 0h-1.747v1.317h1.747v-1.317zm-2.47 0h-1.747v1.317h1.747v-1.317zm-31.381-2.453h-1.566v1.317h1.566v-1.317zm2.47 0H23.61v1.317h1.747v-1.317zm2.469 0H26.08v1.317h1.747v-1.317zm2.349 0H28.55v1.317h1.626v-1.317zm2.41 0h-1.747v1.317h1.747v-1.317zm2.469 0h-1.747v1.317h1.747v-1.317zm2.289 0h-1.566v1.317h1.566v-1.317zm2.469 0h-1.746v1.317h1.746v-1.317zm11.987 0h-1.567v1.317H51.8v-1.317zm-2.29 0h-1.746v1.317h1.747v-1.317zm-2.469 0h-1.747v1.317h1.747v-1.317zm-2.409 0h-1.626v1.317h1.626v-1.317zm-2.349 0h-1.747v1.317h1.747v-1.317zm16.744 0h-1.566v1.317h1.566v-1.317zm-2.288 0h-1.747v1.317h1.747v-1.317zm-2.47 0h-1.747v1.317h1.747v-1.317z" fill="#fff"/><path d="M76.675 36.137V24.769h-.722v.539h-2.29v-.599H70.05v.599h-2.47v-.539h-.542v1.137l-1.867 1.137h-4.216V12.086h.602v-3.59h-.602v-.599h-7.83V7.3h-1.868v.598H41.138v-3.59h-1.325V1.856h3.012V0H39.21v4.427h-1.144v3.59h-10.24V7.42H25.96v.598h-6.505l-.602.598v3.77h.602V9.932h.542v1.854h.602V9.932h.603v1.854h.722V9.932h.422v1.854h.723V9.932h.422v1.854h.722V9.932h.603v1.854h.722V9.932h.422v1.854h.723V9.932h.421v1.854h.723V9.932h.602v1.854h.723V9.932h.422v1.854h.723V9.932h.421v1.854h.723V9.932h.602v1.854h.723V9.932h.422v1.854h.723V9.932h.421v1.854h.723V9.932h.602v1.854h.723V9.932h.422v1.854h.723V9.932h.421v1.854h.723V9.932h.602v1.854h.723V9.932h.422v1.854h.722V9.932h.422v1.854h.723V9.932h.542v1.854h.723V9.932h.421v1.854h.723V9.932h.422v1.854h.723V9.932h.602v1.854h.723V9.932h.421v1.854h.723V9.932h.482v1.854h.723V9.932h.602v1.854h.723V9.932h.421v1.854h.723V9.932h.422v1.854h.723V9.932h.542v1.854h.722V9.932h.422v1.854h.663V9.932h.482v1.854h.722V9.932h.603v1.854h.722V9.932h.422v1.854h.723V9.932h.421v1.854h.723V9.932h.602v2.273h-.542v15.077h-1.325v-1.256h-1.566v1.256h-.722v-1.256h-1.747v1.256h-.723v-1.256h-1.747v1.256H51.8v-1.256h-1.567v1.256h-.722v-1.256h-1.747v1.256h-.723v-1.256h-1.747v1.256h-.722v-1.256h-1.566v1.256h-.723v-1.256h-1.747v1.256h-.723v-1.256h-1.746v1.256h-.723v-1.256h-1.566v1.256h-.723v-1.256h-1.747v1.256h-.722v-1.256h-1.747v1.256h-.723v-1.256H28.55v1.256h-.723v-1.256H26.08v1.256h-.722v-1.256H23.61v1.256h-.723v-1.256h-1.566v1.256h-1.325V12.265h-.542l-.06 15.017H15.66l-1.807-1.855v-.598h-.542v.538h-2.47v-.538H7.229v.598h-2.29v-.538h-.723v11.367H0v1.137h79.506v-1.137l-2.83-.12zM20.6 9.393h-.723v-.778h.723v.778zm1.265 0h-.723v-.778h.723v.778zm1.205 0h-.723v-.778h.723v.778zm1.144 0h-.723v-.778h.723v.778zm1.265 0h-.723v-.778h.723v.778zm1.205 0h-.723v-.778h.723v.778zm1.144 0h-.723v-.778h.723v.778zm1.265 0h-.723v-.778h.723v.778zm.482 0v-.778h.723v.778h-.723zm1.867 0h-.723v-.778h.723v.778zm1.265 0h-.723v-.778h.723v.778zm.482 0v-.778h.723v.778h-.723zm1.144 0v-.778h.723v.778h-.723zm1.988 0h-.723v-.778h.723v.778zm1.144 0h-.722v-.778h.722v.778zm1.205 0h-.723v-.778h.723v.778zm1.265 0h-.723v-.778h.723v.778zM38.669 7.48v-.72h1.747v.718h-1.747zm2.41 1.914h-.724v-.778h.723v.778zm.481 0v-.778h.723v.778h-.723zm1.988 0h-.723v-.778h.723v.778zm1.144 0h-.723v-.778h.723v.778zm1.205 0h-.723v-.778h.723v.778zm1.265 0h-.723v-.778h.723v.778zm1.144 0h-.723v-.778h.723v.778zm1.205 0h-.723v-.778h.723v.778zm1.264 0h-.722v-.778h.723v.778zm1.145 0h-.723v-.778h.723v.778zm1.205 0h-.723v-.778h.723v.778zm1.264 0h-.722v-.778h.722v.778zm1.145 0h-.723v-.778h.723v.778zm1.205 0h-.723v-.778h.723v.778zm1.264 0h-.722v-.778h.722v.778zm1.145 0h-.723v-.778h.723v.778zm1.204 0h-.722v-.778h.722v.778zM12.227 36.137V27.82h-.602v8.317H10.3v-9.034h.542v-.539H7.228v.598h.723v9.035H6.686V27.88h-.603v8.317H5V26.026h8.372v10.17l-1.144-.06zm52.884 0H15.84V27.82h49.27v8.317zm9.697 0V27.82h-.723v8.317h-1.144v-9.034h.723v-.599H70.05v.599h.602v9.034h-1.144V27.82h-.783v8.317H67.58V25.966h8.373v10.17h-1.145zM.18 43.496H5.3v6.401H4.036v-5.324h-2.53v5.324H.18v-6.401zm6.506 0h2.108c.783 0 1.325.06 1.566.12.361.12.663.298.903.657.241.3.362.718.362 1.257 0 .419-.06.718-.241 1.017-.18.3-.301.479-.542.658-.241.18-.422.24-.663.3-.301.06-.783.119-1.325.119h-.843v2.453H6.686v-6.581zm1.265 2.931h.722c.543 0 .844-.06 1.024-.12.181-.06.302-.179.422-.298.12-.12.12-.3.12-.48 0-.238-.06-.418-.18-.597-.12-.18-.301-.24-.542-.3-.181 0-.482-.06-.964-.06H7.95v1.855zm9.757 3.53h-1.385l-.602-1.495h-2.59l-.543 1.435h-1.385l2.53-6.401h1.385l2.59 6.461zm-2.349-2.572l-.903-2.393-.904 2.393h1.807zm5.661-3.889c.483 0 .904 0 1.145.06s.482.12.663.239c.18.12.361.299.482.538.12.24.18.479.18.778 0 .3-.06.598-.24.838-.181.239-.362.419-.663.538.422.12.723.3.904.599.18.299.3.598.3.957 0 .299-.06.598-.18.837-.12.3-.301.479-.542.658-.241.18-.542.24-.904.3-.24 0-.722.06-1.566.06h-2.228v-6.402h2.65zm-1.264 1.077v1.495h1.807c.241 0 .422-.12.542-.239.12-.12.18-.3.18-.479 0-.18-.06-.358-.18-.478s-.301-.18-.482-.24h-1.867v-.06zm0 2.572v1.735h1.205c.482 0 .783 0 .903-.06.18-.06.362-.12.482-.239.12-.12.18-.299.18-.538 0-.18-.06-.36-.12-.479-.06-.12-.24-.24-.421-.299-.181-.06-.542-.12-1.145-.12h-1.084zm5.24-3.649h1.205v4.248l2.65-4.248h1.325v6.401h-1.204V45.71l-2.59 4.188h-1.326v-6.401h-.06zm7.891 6.461v-5.325h-1.928v-1.076h5.12v1.077H34.15v5.324h-1.264zm4.095 0v-6.461h4.819v1.077h-3.494v1.436h3.253v1.077h-3.253v1.735h3.614v1.076h-4.939v.06zm6.445-6.461h4.518v6.401H46.62v-5.324h-1.928v2.752c0 .778 0 1.316-.06 1.675-.06.3-.18.538-.361.718-.181.18-.543.24-.964.24-.18 0-.422 0-.843-.06V48.88h.3c.302 0 .482-.06.543-.12.06-.06.12-.239.12-.538v-4.726zm7.228 0v2.572h1.747c.843 0 1.445.18 1.807.599.361.359.542.837.542 1.376 0 .419-.12.837-.362 1.136-.24.3-.481.539-.783.599-.3.12-.722.18-1.264.18H49.27v-6.462h1.385zm0 5.384h1.265c.422 0 .723 0 .843-.06.18-.06.301-.12.422-.299.12-.12.18-.299.18-.538 0-.3-.12-.538-.3-.658-.242-.12-.603-.18-1.085-.18h-1.325v1.735zm9.095-1.316l1.265.419a2.892 2.892 0 01-.964 1.556c-.482.358-1.024.538-1.747.538-.843 0-1.566-.3-2.108-.898-.542-.598-.843-1.376-.843-2.393 0-1.077.301-1.914.843-2.513.543-.598 1.265-.897 2.169-.897.783 0 1.445.24 1.927.718.301.3.542.658.663 1.197l-1.265.299a1.169 1.169 0 00-.482-.778c-.24-.18-.542-.3-.904-.3-.481 0-.843.18-1.144.54-.301.358-.421.897-.421 1.675 0 .837.12 1.376.421 1.735.301.358.663.538 1.145.538.36 0 .662-.12.903-.3.24-.298.422-.657.542-1.136zm3.614 2.393v-5.325h-1.927v-1.076h5.12v1.077h-1.928v5.324h-1.265zm6.626-6.461c.481 0 .903 0 1.144.06.24.06.482.12.662.239.181.12.362.299.482.538.12.24.181.479.181.778 0 .3-.06.598-.24.838-.182.239-.362.419-.663.538.421.12.722.3.903.599.18.299.301.598.301.957 0 .299-.06.598-.18.837-.121.3-.302.479-.543.658-.24.18-.542.24-.903.3-.241 0-.723.06-1.566.06h-2.229v-6.402h2.65zm-1.265 1.077v1.495h1.807a.77.77 0 00.542-.239c.12-.12.18-.3.18-.479 0-.18-.06-.358-.18-.478s-.302-.18-.482-.24h-1.867v-.06zm0 2.572v1.735h1.204c.482 0 .783 0 .904-.06.18-.06.361-.12.482-.239.12-.12.18-.299.18-.538 0-.18-.06-.36-.12-.479-.06-.12-.241-.24-.422-.299-.18-.06-.542-.12-1.144-.12h-1.084zm4.758-.359c0-.658.12-1.196.301-1.675.12-.299.361-.598.602-.897.241-.24.543-.479.844-.599.421-.18.843-.239 1.385-.239.964 0 1.687.3 2.289.898.542.598.843 1.376.843 2.453 0 1.017-.301 1.854-.843 2.453-.542.598-1.325.897-2.289.897-.964 0-1.747-.3-2.289-.898-.602-.598-.843-1.376-.843-2.393zm1.325-.06c0 .718.18 1.257.482 1.676.361.359.783.538 1.265.538.542 0 .963-.18 1.265-.538.361-.36.482-.958.482-1.675 0-.718-.181-1.257-.482-1.676-.301-.359-.783-.538-1.265-.538-.542 0-.964.18-1.325.538-.241.36-.422.957-.422 1.675zM7.59 59.23v-6.46h2.107c.783 0 1.325.06 1.566.119.362.12.663.3.904.658.24.3.361.718.361 1.256 0 .42-.06.718-.24 1.018-.181.299-.302.478-.543.658-.24.18-.421.239-.662.299-.302.06-.783.12-1.325.12h-.844v2.333H7.59zm1.324-3.53h.723c.542 0 .843-.059 1.024-.119.18-.06.301-.18.422-.299.12-.12.12-.3.12-.479 0-.239-.06-.418-.18-.598-.121-.18-.302-.24-.543-.299-.18 0-.482-.06-.963-.06h-.603v1.855zm4.457.36c0-.658.12-1.197.302-1.675.12-.3.361-.599.602-.898.24-.24.542-.479.843-.598.422-.18.843-.24 1.386-.24.963 0 1.686.3 2.288.898.542.598.844 1.376.844 2.453 0 1.017-.302 1.855-.844 2.453-.542.598-1.325.897-2.288.897-.964 0-1.747-.299-2.29-.897-.541-.598-.843-1.376-.843-2.393zm1.326-.06c0 .718.18 1.256.481 1.675.362.36.783.539 1.265.539.542 0 .964-.18 1.265-.539.362-.359.482-.957.482-1.675 0-.718-.18-1.256-.482-1.675-.301-.36-.783-.539-1.265-.539-.542 0-.963.18-1.325.539-.24.359-.421.957-.421 1.675zm10.239.838l1.265.418a2.894 2.894 0 01-.964 1.556c-.482.359-1.024.538-1.746.538-.844 0-1.567-.299-2.109-.897-.542-.598-.843-1.376-.843-2.393 0-1.077.301-1.915.843-2.513.542-.598 1.265-.897 2.169-.897.783 0 1.445.239 1.927.718.301.299.542.658.663 1.196l-1.265.3a1.168 1.168 0 00-.482-.778c-.241-.18-.542-.3-.903-.3-.482 0-.844.18-1.145.539-.301.359-.422.897-.422 1.675 0 .838.12 1.376.422 1.735.301.359.663.538 1.145.538.36 0 .662-.12.903-.299.24-.299.422-.658.542-1.136zm6.625 0l1.265.418a2.894 2.894 0 01-.963 1.556c-.482.359-1.024.538-1.747.538-.843 0-1.566-.299-2.108-.897-.542-.598-.843-1.376-.843-2.393 0-1.077.3-1.915.843-2.513.542-.598 1.265-.897 2.168-.897.783 0 1.446.239 1.928.718.3.299.542.658.662 1.196l-1.265.3a1.169 1.169 0 00-.482-.778 1.48 1.48 0 00-.903-.3c-.482 0-.843.18-1.144.539-.302.359-.422.897-.422 1.675 0 .838.12 1.376.422 1.735a1.4 1.4 0 001.144.538c.361 0 .663-.12.904-.299.3-.299.481-.658.541-1.136zm2.59-4.068h1.205v4.247l2.65-4.248h1.325v6.462h-1.204v-4.188l-2.59 4.188h-1.325v-6.462h-.06zm6.626 0h1.205v4.247l2.65-4.248h1.325v6.462h-1.205v-4.188l-2.59 4.188h-1.325v-6.462h-.06zm3.313-1.556h.602c-.06.419-.18.718-.422.957-.24.24-.542.359-.963.359-.422 0-.723-.12-.964-.36-.24-.238-.361-.538-.422-.956h.603c0 .18.12.359.24.478.121.12.302.18.543.18.24 0 .421-.06.542-.18.18-.12.24-.299.24-.478zm7.408 5.624l1.265.418a2.894 2.894 0 01-.963 1.556c-.482.359-1.024.538-1.747.538-.843 0-1.566-.299-2.108-.897-.542-.598-.844-1.376-.844-2.393 0-1.077.302-1.915.844-2.513.542-.598 1.264-.897 2.168-.897.783 0 1.446.239 1.927.718.302.299.543.658.663 1.196l-1.265.3a1.168 1.168 0 00-.482-.778 1.48 1.48 0 00-.903-.3c-.482 0-.843.18-1.145.539-.3.359-.421.897-.421 1.675 0 .838.12 1.376.421 1.735.301.359.663.538 1.145.538.361 0 .662-.12.903-.299.241-.299.422-.658.542-1.136zm2.53-4.068h1.325v2.751c.301 0 .482-.12.602-.239.121-.12.241-.479.482-1.017.241-.718.542-1.137.844-1.316.24-.18.722-.24 1.325-.24h.18v.958h-.18c-.241 0-.482.06-.603.12a.723.723 0 00-.3.299c-.061.12-.181.418-.362.837-.06.24-.18.419-.241.538-.12.12-.241.3-.482.42.301.06.542.239.723.478.18.24.422.598.602 1.077l.904 1.735H57.28l-.783-1.675s-.06-.06-.06-.12c0 0-.06-.12-.181-.3-.181-.298-.301-.538-.422-.597a1.14 1.14 0 00-.482-.12v2.872h-1.325v-6.462zm5.361 3.29c0-.658.12-1.197.3-1.675.121-.3.362-.599.603-.898.241-.24.542-.479.843-.598.422-.18.844-.24 1.386-.24.963 0 1.686.3 2.289.898.542.598.843 1.376.843 2.453 0 1.017-.301 1.855-.843 2.453-.543.598-1.326.897-2.29.897-.963 0-1.746-.299-2.288-.897-.542-.598-.843-1.376-.843-2.393zm1.385-.06c0 .718.18 1.256.482 1.675.361.36.783.539 1.265.539.542 0 .963-.18 1.265-.539.361-.359.481-.957.481-1.675 0-.718-.18-1.256-.481-1.675-.302-.36-.783-.539-1.265-.539-.542 0-.964.18-1.325.539-.241.359-.422.957-.422 1.675zm6.084-3.23h1.204v4.247l2.65-4.248h1.325v6.462h-1.204v-4.188l-2.59 4.188h-1.325v-6.462h-.06zm3.372-1.556h.603c-.06.419-.18.718-.422.957-.24.24-.542.359-.964.359-.421 0-.722-.12-.963-.36-.241-.238-.362-.538-.422-.956h.602c0 .18.12.359.241.478.12.12.302.18.542.18.241 0 .422-.06.543-.18.12-.12.18-.299.24-.478zM14.998 67.727v.777h-1.265v-.778c-1.024-.06-1.747-.299-2.168-.777a2.597 2.597 0 01-.663-1.735c0-.718.24-1.317.663-1.795.421-.479 1.144-.718 2.168-.718v-.658h1.265v.658c1.024.06 1.746.299 2.168.778.422.478.663 1.077.663 1.794 0 .719-.241 1.317-.663 1.736-.422.418-1.144.718-2.168.718zm-1.265-1.077v-2.872c-.542 0-.964.12-1.205.359-.24.24-.361.598-.361 1.077 0 .957.482 1.436 1.566 1.436zm1.265 0c.361 0 .662-.06.903-.18s.422-.24.542-.478c.12-.18.181-.48.181-.838 0-.957-.542-1.376-1.566-1.376v2.872h-.06zm3.975 1.854v-6.402h4.819v1.078h-3.494v1.435h3.253v1.077h-3.253v1.735h3.614v1.077h-4.939zm11.143-6.461v5.325h.542v2.453h-1.084v-1.376h-4.096v1.376h-1.084v-2.453h.542c.241-.539.422-1.197.542-1.915.06-.718.12-1.615.12-2.752v-.658h4.518zm-3.192 1.077c0 1.974-.181 3.35-.542 4.248h2.47V63.12h-1.928zm4.818 5.384v-6.402h4.819v1.078h-3.494v1.435h3.253v1.077h-3.253v1.735h3.614v1.077h-4.939zm6.144-6.402h2.108c.783 0 1.325.06 1.566.12.361.12.663.3.904.658.24.3.36.718.36 1.257 0 .418-.06.718-.24 1.017-.18.299-.301.478-.542.658-.241.18-.422.24-.663.3-.3.059-.783.119-1.325.119h-.843v2.453h-1.325v-6.581zm1.325 2.872h.723c.542 0 .843-.06 1.024-.12.18-.06.3-.179.421-.299.12-.12.12-.299.12-.478 0-.24-.06-.419-.18-.598-.12-.18-.301-.24-.542-.3-.18 0-.482-.06-.964-.06h-.602v1.855zm9.879 3.53h-1.447l-.542-1.436h-2.59l-.542 1.436h-1.385l2.53-6.402h1.385l2.59 6.402zm-2.41-2.572l-.904-2.394-.903 2.394h1.807zm3.252-3.889h1.325v5.325h2.53v-5.325h1.325v5.325h.542v2.453H54.57v-1.376h-4.578v-6.402h-.06zm6.746 0h1.205v4.248l2.65-4.248h1.325v6.402h-1.204v-4.189l-2.59 4.189h-1.386v-6.402zm6.626 0h1.204v4.248l2.65-4.248h1.326v6.402h-1.205v-4.189l-2.59 4.189h-1.385v-6.402z" fill="#fff"/></svg>