<svg width="120" height="57" viewBox="0 0 120 57" fill="none" xmlns="http://www.w3.org/2000/svg"><path d="M26 46.318l94-40.085c-13.003-.016-26.006-.029-39.01-.043-1.9 2.52-3.906 5.376-5.699 7.557.746-2.518 1.492-5.038 2.236-7.557-1.476-.014-2.952-.027-4.432-.043-1.203 3.428-3.566 7.72-5.571 10.85-.84 1.264-.96-.069-.677-1.055l2.956-9.794-4.349.086-1.35 4.686-6.12 7.976c1.252-4.235 2.504-8.471 3.758-12.706h-4.518c-.73 2.532-1.463 5.065-2.195 7.599-1.28.309-2.562.618-3.842.929.845-2.843 1.688-5.687 2.534-8.528l-4.899-.043-2.87 9.668c-2.984 3.518-5.966 7.037-8.95 10.554-.309.367-.919.723-1.334.666-1.361-.238-1.24-3.508-1.107-5.752 2.534-1.048 5.25-2.774 7.423-4.962 4.095-3.841 4.92-10.133-.506-10.131-5.112.048-10.426 5.577-12.33 14.316-1.32.545-2.594.979-4.25 1.712-.327-1.6-1.037-3.377-2.63-4.885 5.643-3.094 12.089-10.538 8.444-15.492-2.732-3.425-11.368-2.157-16.72 4.517-.463 1.66-.929 3.322-1.393 4.982.304.006.605.014.909.021 5.53-7.655 10.3-6.403 10.384-3.335.086 2.66-3.516 7.659-8.245 10.994 1.632 1.647 2.672 3.7 3.038 6.36C8.688 30.397.225 41.364 0 49.23c.07 3.337 1.153 7.094 4.77 6.968 8.5-.424 21.475-17.86 20.56-31.03l3.368-1.587c-.383 2.875.192 9.867 5.373 8.171 3.94-1.336 7.753-7.401 10.805-11.61l-2.7 8.782 5.36-1.688c.888-3.083 1.775-6.164 2.66-9.247 1.338-.365 2.674-.732 4.012-1.098l-2.703 8.993 4.9-1.605c2.038-2.702 4.078-5.404 6.121-8.105-.825 4.383.4 5.906 2.638 5.71 2.511-.254 4.559-5.373 6.226-8.2-.434 1.974-1.157 4.313-1.056 5.867l3.8-1.266 6.63-8.487H83c-.632 2.042-1.265 4.081-1.898 6.122 1.546-.493 3.094-.986 4.643-1.477.45-1.548.902-3.097 1.35-4.645l14.608.042a554399.734 554399.734 0 00-73.892 30.188l-1.815 6.29H26zM39.556 9.37c.788.38.674 1.71.434 2.587-.413 1.948-2.333 4.707-4.952 6.172.638-3.07 2.962-9.345 4.518-8.76zM11.608 48.624c-4.053 3.911-5.3 1.674-5.217-.832.118-7.6 6.653-14.985 12.462-19.144-.25 7.15-3.585 16.289-7.245 19.976zm67.757-14.997l-1.332 2.575 2.262.012v8.116l2.724.042.03-10.745m5.076-.05c-2.568.03-4.038 1.536-4.094 3.632.003 2.434 1.839 3.842 4.348 3.42l-2.576 3.713h2.913c2.064-3.027 3.495-4.676 3.463-7.049.06-2.103-1.368-3.68-4.056-3.716h.002zm-.063 5.3a1.67 1.67 0 01-1.626-1.712 1.669 1.669 0 111.625 1.711m4.744-1.426c.031-2.069 1.174-3.818 3.862-3.82 2.69-.004 4.117 1.216 4.117 3.25 0 2.082-1.604 3.384-3.546 5.299 1.112-.01 2.265 0 3.378-.006.012.731-.013 1.447 0 2.178h-8.15c3.977-4.773 5.778-6.663 5.785-7.43.003-.686-.7-1.329-1.351-1.329-.672 0-1.49.546-1.475 1.855m7.401-3.816c-.197 1.998-.394 3.765-.592 5.763l.306-.002c1.433-.861 4.106-.14 4.102 1.327-.015 1.216-2.419 2.238-4.618.363l-.274 2.26c.679.819 2.065 1.015 3.229 1.024 2.51-.057 4.273-1.875 4.242-3.834.037-1.838-1.744-3.974-4.579-3.112.014-.626.026-1.021.041-1.647 1.295-.015 2.637.001 3.932-.012 0-.704-.048-1.43-.048-2.132-1.92.004-3.834-.002-5.742.002" fill="#fff"/></svg>