<svg width="70" height="70" viewBox="0 0 70 70" fill="none" xmlns="http://www.w3.org/2000/svg"><path d="M62.089 45.488c-4.8 10.82-13.996 18.343-26.076 18.509-8.771.118-16.526-2.895-22.129-8.163l-3.38 1.447v-5.267c-3.689-4.983-5.84-11.32-5.84-18.485 0-18.39 14.02-32.865 33.594-32.865 3.192 0 6.076.499 8.251.997C43.152.593 39.82 0 36.107 0 15.114 0 .976 17.085.976 34.715.976 53.912 15.988 70 35.682 70c18.818 0 28.96-13.312 32.223-21.332l-5.816-3.18z" fill="#fff"/><path d="M57.22 41.691c2.766-.308 4.68-1.423 5.72-2.467.946-.95 1.183-2.23 1.183-3.204.047-1.423 0-5.884 0-5.884l-7.306 1.59v1.708c.024 1.139.568 1.756 1.75 1.542.378-.07.946-.237.946-.237v1.4c0-.047.118.783-1.726 1.139-2.412.38-3.5-1.115-3.523-3.75.048-2.823 1.631-4.436 3.57-4.887 2.175-.499 3.404.023 4.114.118 2.411.356 3.097-3.274.898-4.128-1.631-.665-3.735-.784-5.745-.38-2.695.546-7.967 2.8-7.99 10.132-.024 5.837 4.255 7.736 8.108 7.308zm-23.76 6.241s2.246-.783 2.435-.83c1.797-.617 2.459-1.709 2.459-3.56-.024-2.017-.024-5.956-.024-5.956l5.225 6.028c.85.878 1.915.949 2.884.664.993-.285 1.844-1.21 1.868-2.515V26.79s-1.348.285-2.46.593c-1.276.356-2.269 1.187-2.269 3.37v5.196s-2.978-3.725-4.893-5.647c-1.017-1.02-2.72-.404-2.72-.404l-2.505.76v17.274zm-1.584-16.895s-1.56.451-2.837.926c-1.655.593-2.624 1.566-2.624 4.081V50.4s1.442-.498 2.813-1.02c1.915-.736 2.648-1.733 2.648-3.75V31.037zm-7.778 3.417c-1.442-.664-2.671.071-3.192.878l-4.42 7.57v-6.099l-5.249 2.16-.024 17.227 3.689-1.543s.732-.213 1.158-.901c.402-.641.378-1.685.378-1.685v-5.458l4.114 4.39c.898.95 2.553 1.424 4.019.237 1.324-1.067 1.11-2.894.378-3.725l-3.735-3.773s3.286-5.22 3.83-6.074c.709-1.187.354-2.61-.946-3.204zm-10.355-2.325c-.024-.95-.757-1.471-2.01-.83v3.06s.402-.19.71-.332c.756-.356 1.324-.973 1.3-1.898zm-2.033-2.776c.236-.095.402-.167.59-.262.686-.332 1.183-.972 1.183-1.78 0-.925-.757-1.162-1.773-.64v2.681zm5.39 2.325c.047 2.42-1.679 3.702-3.948 4.627l-4.61 1.97V25.722s2.908-1.186 3.853-1.542c2.696-.997 4.28.213 4.28 2.017 0 1.21-.52 2.23-1.632 3.132 1.088.19 2.033 1.091 2.057 2.349zm8.747-10.583c0-1.068-.733-1.329-1.607-1.092a29.88 29.88 0 00-1.537.522v7.807c0 .783-.118 1.756-1.087 1.993-.733.19-1.088-.308-1.088-1.091V22.85c0-1.068-.733-1.377-1.607-1.092-.993.332-1.56.57-1.56.57v7.735c-.024 2.587 1.772 3.892 4.467 3.085 2.388-.712 3.996-2.064 4.02-5.505v-6.55zm25.675 3.227c.686-.142 1.111-.64 1.111-1.495v-1.352l-3.735.83v-2.207s1.844-.38 2.34-.498c.639-.142.97-.498.97-1.234v-1.281l-3.31.712V16.04l2.648-.546c.733-.142.969-.64.969-1.329v-1.329c-1.655.285-4.8.926-6.762 1.377L45.73 25.65s3.735-.878 5.792-1.329zm-21.656-.474s1.844-.973 1.844-2.492c-.023-1.305-1.205-1.02-1.82-.783l-.024 3.274zm.024 1.78v3.084c0 .83-.567 1.424-1.277 1.708 0-.023 0 .024 0 0-.59.214-1.867.641-1.867.641V19.268s2.624-.926 4.16-1.282c2.365-.569 4.067.523 4.043 2.468-.023 1.851-1.04 2.966-1.962 3.75l2.033 1.945c.615.617.662 1.709-.023 2.373-.426.403-1.537.807-2.388-.095-.024 0-2.719-2.8-2.719-2.8zm26.502-8.116s1.82-.688 1.797-2.16c-.024-1.233-1.23-1.02-1.82-.877l.023 3.037zm-3.073 6.454V12.671s3.286-.593 4.137-.688c2.364-.308 3.948 1.02 3.9 2.871-.023 1.638-1.04 2.634-1.914 3.227 0 0 1.607 1.804 2.033 2.302.567.64.544 1.756-.308 2.302-.827.522-1.678.26-2.15-.285l-2.625-3.132v2.752c0 .83-.497 1.448-1.348 1.614l-1.725.332z" fill="#fff"/><path d="M44.997 19.22l-4.657 1.068v1.305c0 .617.425.997 1.04.878.378-.071.685-.142.685-.142v1.305c0 .522-.756.854-1.56.83-1.135-.047-1.75-.925-1.773-2.586.023-2.183 1.064-3.465 2.459-3.82.685-.19 1.323-.095 1.82-.024 1.206.19 1.891-.38 1.915-1.376.024-1.068-.922-1.733-2.932-1.661-4.397.142-6.643 3.322-6.643 7.095 0 3.867 2.53 5.576 5.603 5.03 1.726-.356 2.6-.925 3.192-1.448.59-.521.85-1.305.85-1.993v-4.46z" fill="#fff"/><path fill-rule="evenodd" clip-rule="evenodd" d="M52.94 9.847c.166-.403-.165-.783-.165-.783s-2.6-4.413-11.75-5.41c-4.917-.522-11.584.475-16.265 3.014-8.511 4.58-9.788 12.149-9.788 12.149-.047.19-.118.76.071.997.19.237.473.237.828.118 3.002-1.02 11.915-3.986 17.542-5.481 8.014-2.136 14.61-3.44 18.818-4.153.331-.07.591-.166.71-.45zM26.628 6.573c-5.154 2.278-8.63 7.712-8.819 9.99-.07.901 1.135 1.044 1.253.07 1.088-4.175 4.398-8.114 7.566-10.06zm18.353 3.582c-.4.092-.836.192-1.308.31 1.064-.333 1.891-1.163 1.868-2.112 0-1.472-3.31-3.607-8.842-3.987 5.437-.45 11.348 1.97 11.3 4.058-.02 1.043-1.08 1.286-3.018 1.731zM22.301 55.62s-.45-.45-.26-.901c.142-.285.307-.356.71-.523 9.338-4.01 25.485-8.969 35.225-11.27.425-.096.756-.096.97.142.26.284.212.735.141 1.02-.33 1.4-3.286 11.342-17.282 14.736-9.173 2.23-17.613-.807-19.504-3.204zm33.453-8.613c-2.222 4.698-6.218 7.854-10.379 9.491 4.705-2.681 7.353-6.596 8.653-9.942.52-1.614 2.364-.902 1.726.45z" fill="#fff"/><path d="M66.345 42.38h.567c.308 0 .71.047.71.427 0 .427-.284.474-.662.474h-.591l-.024-.901zm-.686 2.87h.662v-1.447h.426l.827 1.448h.71l-.899-1.495c.497-.047.899-.285.899-.902 0-.735-.473-1.02-1.324-1.02h-1.3v3.417zm-1.89-1.708c0 1.851 1.465 3.061 3.12 3.061s3.12-1.186 3.12-3.06c0-1.851-1.465-3.038-3.12-3.038s-3.12 1.187-3.12 3.037zm.827 0c0-1.376 1.016-2.396 2.293-2.396 1.253 0 2.293.996 2.293 2.396s-1.04 2.397-2.293 2.397c-1.277.024-2.293-.997-2.293-2.397z" fill="#fff"/></svg>